<svg xmlns="http://www.w3.org/2000/svg" viewBox="0 0 1200 880"><rect width="1200" height="880" fill="#fffef9"/><g font-family="Segoe UI,Microsoft JhengHei,sans-serif" fill="#243b31"><text x="34" y="42" font-size="22">FC-57d1b9a817ff37 · 下層托板折邊</text><text x="34" y="76" font-size="14">3905 × 2 × 24 mm — geometry extent, not a manufacturing tolerance</text><rect x="34" y="115" width="540" height="292" fill="none" stroke="#d6dbd0"/><text x="48" y="140" font-size="15">FRONT / XZ</text><path d="M553.98,258.53L554.00,258.53M554.00,258.53L553.98,258.48M554.00,258.53L554.00,258.53M554.00,260.00L554.00,258.53M554.00,261.47L554.00,260.00M554.00,261.47L554.00,261.47M554.00,258.53L554.00,258.53M554.00,261.47L554.00,261.47M554.00,260.00L554.00,258.53M554.00,261.47L554.00,260.00M554.00,261.47L553.98,261.47M553.98,261.52L554.00,261.47M54.02,261.47L54.00,261.47M54.00,261.47L54.02,261.52M54.00,261.47L54.00,261.47M54.00,260.00L54.00,261.47M54.00,258.53L54.00,260.00M54.00,258.53L54.00,258.53M54.00,261.47L54.00,261.47M54.00,258.53L54.00,258.53M54.00,260.00L54.00,261.47M54.00,258.53L54.00,260.00M54.00,258.53L54.02,258.53M54.02,258.48L54.00,258.53M54.03,261.51L54.02,261.47M54.06,261.52L54.06,261.47M553.98,261.47L553.97,261.51M54.02,261.47L54.02,260.00M54.06,261.47L54.02,261.47M54.06,261.47L54.06,260.00M304.00,261.47L54.06,261.47M553.94,261.47L304.00,261.47M553.94,261.47L553.94,260.00M553.98,260.00L553.98,261.47M54.02,260.00L54.02,258.53M54.06,260.00L54.06,258.53M553.94,260.00L553.94,258.53M553.98,258.53L553.98,260.00M54.02,258.53L54.03,258.49M304.00,258.53L54.06,258.53M553.94,258.53L304.00,258.53M553.94,258.53L553.94,258.48M553.98,258.53L553.94,258.53M553.97,258.49L553.98,258.53M54.03,258.49L54.02,258.53M54.06,258.48L54.06,258.53M553.98,258.53L553.97,258.49M54.02,258.53L54.02,260.00M54.06,258.53L54.02,258.53M54.06,258.53L54.06,260.00M304.00,258.53L54.06,258.53M553.94,258.53L304.00,258.53M553.94,258.53L553.94,260.00M553.98,260.00L553.98,258.53M54.02,260.00L54.02,261.47M54.06,260.00L54.06,261.47M553.94,260.00L553.94,261.47M553.98,261.47L553.98,260.00M54.02,261.47L54.03,261.51M304.00,261.47L54.06,261.47M553.94,261.47L304.00,261.47M553.94,261.47L553.94,261.52M553.98,261.47L553.94,261.47M553.97,261.51L553.98,261.47M54.03,258.49L54.02,258.48M54.06,258.48L54.03,258.49M54.06,258.48L54.06,258.46M304.00,258.48L54.06,258.48M553.94,258.48L304.00,258.48M553.97,258.49L553.94,258.48M553.98,258.48L553.97,258.49M54.02,258.48L54.02,258.48M54.06,258.46L54.02,258.48M54.06,258.46L54.06,258.46M304.00,258.46L54.06,258.46M553.94,258.46L304.00,258.46M553.94,258.46L553.94,258.46M553.98,258.48L553.98,258.48M54.02,258.48L54.02,258.48M54.06,258.46L54.06,258.46M553.94,258.46L553.94,258.46M553.98,258.48L553.98,258.48M54.02,258.48L54.03,258.49M54.03,258.49L54.06,258.48M304.00,258.46L54.06,258.46M54.06,258.48L304.00,258.48M553.94,258.46L304.00,258.46M304.00,258.48L553.94,258.48M553.94,258.46L553.94,258.48M553.98,258.48L553.94,258.46M553.94,258.48L553.97,258.49M553.97,258.49L553.98,258.48M553.97,261.51L553.98,261.52M553.94,261.52L553.97,261.51M553.94,261.52L553.94,261.54M304.00,261.52L553.94,261.52M54.06,261.52L304.00,261.52M54.03,261.51L54.06,261.52M54.02,261.52L54.03,261.51M553.98,261.52L553.98,261.52M553.94,261.54L553.98,261.52M553.94,261.54L553.94,261.54M304.00,261.54L553.94,261.54M54.06,261.54L304.00,261.54M54.06,261.54L54.06,261.54M54.02,261.52L54.02,261.52M553.98,261.52L553.98,261.52M553.94,261.54L553.94,261.54M54.06,261.54L54.06,261.54M54.02,261.52L54.02,261.52M553.98,261.52L553.97,261.51M553.97,261.51L553.94,261.52M304.00,261.54L553.94,261.54M553.94,261.52L304.00,261.52M54.06,261.54L304.00,261.54M304.00,261.52L54.06,261.52M54.06,261.54L54.06,261.52M54.02,261.52L54.06,261.54M54.06,261.52L54.03,261.51M54.03,261.51L54.02,261.52" fill="none" stroke="#2e3e38" stroke-width=".85"/><text x="48" y="395" font-size="11" fill="#6b736c">MODEL-DERIVED · no hidden-line removal</text><rect x="604" y="115" width="540" height="292" fill="none" stroke="#d6dbd0"/><text x="618" y="140" font-size="15">SIDE / YZ</text><path d="M882.36,147.40L878.90,147.40M878.90,147.40L878.90,143.93M878.90,147.40L874.00,147.40M878.90,260.00L878.90,147.40M878.90,372.60L878.90,260.00M878.90,372.60L874.00,372.60M874.00,147.40L869.10,147.40M874.00,372.60L869.10,372.60M869.10,260.00L869.10,147.40M869.10,372.60L869.10,260.00M869.10,372.60L865.64,372.60M869.10,376.07L869.10,372.60M882.36,372.60L878.90,372.60M878.90,372.60L878.90,376.07M878.90,372.60L874.00,372.60M878.90,260.00L878.90,372.60M878.90,147.40L878.90,260.00M878.90,147.40L874.00,147.40M874.00,372.60L869.10,372.60M874.00,147.40L869.10,147.40M869.10,260.00L869.10,372.60M869.10,147.40L869.10,260.00M869.10,147.40L865.64,147.40M869.10,143.93L869.10,147.40M881.72,375.43L882.36,372.60M882.36,376.07L883.79,372.60M882.36,372.60L881.72,375.43M882.36,372.60L882.36,260.00M883.79,372.60L882.36,372.60M883.79,372.60L883.79,260.00M883.79,372.60L883.79,372.60M883.79,372.60L883.79,372.60M883.79,372.60L883.79,260.00M882.36,260.00L882.36,372.60M882.36,260.00L882.36,147.40M883.79,260.00L883.79,147.40M883.79,260.00L883.79,147.40M882.36,147.40L882.36,260.00M882.36,147.40L881.72,144.57M883.79,147.40L883.79,147.40M883.79,147.40L883.79,147.40M883.79,147.40L882.36,143.93M882.36,147.40L883.79,147.40M881.72,144.57L882.36,147.40M866.28,144.57L865.64,147.40M865.64,143.93L864.21,147.40M865.64,147.40L866.28,144.57M865.64,147.40L865.64,260.00M864.21,147.40L865.64,147.40M864.21,147.40L864.21,260.00M864.21,147.40L864.21,147.40M864.21,147.40L864.21,147.40M864.21,147.40L864.21,260.00M865.64,260.00L865.64,147.40M865.64,260.00L865.64,372.60M864.21,260.00L864.21,372.60M864.21,260.00L864.21,372.60M865.64,372.60L865.64,260.00M865.64,372.60L866.28,375.43M864.21,372.60L864.21,372.60M864.21,372.60L864.21,372.60M864.21,372.60L865.64,376.07M865.64,372.60L864.21,372.60M866.28,375.43L865.64,372.60M881.72,144.57L878.90,143.93M882.36,143.93L881.72,144.57M882.36,143.93L878.90,142.50M882.36,143.93L882.36,143.93M882.36,143.93L882.36,143.93M881.72,144.57L882.36,143.93M878.90,143.93L881.72,144.57M878.90,143.93L874.00,143.93M878.90,142.50L878.90,143.93M878.90,142.50L874.00,142.50M878.90,142.50L878.90,142.50M878.90,142.50L878.90,142.50M878.90,142.50L874.00,142.50M874.00,143.93L878.90,143.93M874.00,143.93L869.10,143.93M874.00,142.50L869.10,142.50M874.00,142.50L869.10,142.50M869.10,143.93L874.00,143.93M869.10,143.93L866.28,144.57M866.28,144.57L865.64,143.93M869.10,142.50L869.10,142.50M865.64,143.93L865.64,143.93M869.10,142.50L869.10,142.50M865.64,143.93L865.64,143.93M869.10,142.50L865.64,143.93M869.10,143.93L869.10,142.50M865.64,143.93L866.28,144.57M866.28,144.57L869.10,143.93M881.72,375.43L878.90,376.07M882.36,376.07L881.72,375.43M882.36,376.07L878.90,377.50M882.36,376.07L882.36,376.07M882.36,376.07L882.36,376.07M881.72,375.43L882.36,376.07M878.90,376.07L881.72,375.43M878.90,376.07L874.00,376.07M878.90,377.50L878.90,376.07M878.90,377.50L874.00,377.50M878.90,377.50L878.90,377.50M878.90,377.50L878.90,377.50M878.90,377.50L874.00,377.50M874.00,376.07L878.90,376.07M874.00,376.07L869.10,376.07M874.00,377.50L869.10,377.50M874.00,377.50L869.10,377.50M869.10,376.07L874.00,376.07M869.10,376.07L866.28,375.43M866.28,375.43L865.64,376.07M869.10,377.50L869.10,377.50M865.64,376.07L865.64,376.07M869.10,377.50L869.10,377.50M865.64,376.07L865.64,376.07M869.10,377.50L865.64,376.07M869.10,376.07L869.10,377.50M865.64,376.07L866.28,375.43M866.28,375.43L869.10,376.07" fill="none" stroke="#2e3e38" stroke-width=".85"/><text x="618" y="395" font-size="11" fill="#6b736c">MODEL-DERIVED · no hidden-line removal</text><rect x="34" y="433" width="540" height="292" fill="none" stroke="#d6dbd0"/><text x="48" y="458" font-size="15">TOP / XY</text><path d="M553.98,577.89L554.00,577.94M554.00,577.94L553.98,577.94M554.00,577.94L554.00,578.00M554.00,577.94L554.00,577.94M554.00,577.94L554.00,577.94M554.00,577.94L554.00,578.00M554.00,578.00L554.00,578.06M554.00,578.00L554.00,578.06M554.00,578.06L554.00,578.06M554.00,578.06L554.00,578.06M554.00,578.06L553.98,578.11M553.98,578.06L554.00,578.06M54.02,577.89L54.00,577.94M54.00,577.94L54.02,577.94M54.00,577.94L54.00,578.00M54.00,577.94L54.00,577.94M54.00,577.94L54.00,577.94M54.00,577.94L54.00,578.00M54.00,578.00L54.00,578.06M54.00,578.00L54.00,578.06M54.00,578.06L54.00,578.06M54.00,578.06L54.00,578.06M54.00,578.06L54.02,578.11M54.02,578.06L54.00,578.06M54.03,577.90L54.02,577.89M54.06,577.89L54.06,577.87M553.98,577.89L553.97,577.90M54.02,577.89L54.02,577.89M54.06,577.87L54.02,577.89M54.06,577.87L54.06,577.87M304.00,577.87L54.06,577.87M553.94,577.87L304.00,577.87M553.94,577.87L553.94,577.87M553.98,577.89L553.98,577.89M54.02,577.89L54.02,577.89M54.06,577.87L54.06,577.87M553.94,577.87L553.94,577.87M553.98,577.89L553.98,577.89M54.02,577.89L54.03,577.90M304.00,577.87L54.06,577.87M553.94,577.87L304.00,577.87M553.94,577.87L553.94,577.89M553.98,577.89L553.94,577.87M553.97,577.90L553.98,577.89M54.03,578.10L54.02,578.11M54.06,578.11L54.06,578.13M553.98,578.11L553.97,578.10M54.02,578.11L54.02,578.11M54.06,578.13L54.02,578.11M54.06,578.13L54.06,578.13M304.00,578.13L54.06,578.13M553.94,578.13L304.00,578.13M553.94,578.13L553.94,578.13M553.98,578.11L553.98,578.11M54.02,578.11L54.02,578.11M54.06,578.13L54.06,578.13M553.94,578.13L553.94,578.13M553.98,578.11L553.98,578.11M54.02,578.11L54.03,578.10M304.00,578.13L54.06,578.13M553.94,578.13L304.00,578.13M553.94,578.13L553.94,578.11M553.98,578.11L553.94,578.13M553.97,578.10L553.98,578.11M54.03,577.90L54.02,577.94M54.06,577.89L54.03,577.90M54.06,577.89L54.06,577.94M304.00,577.89L54.06,577.89M553.94,577.89L304.00,577.89M553.97,577.90L553.94,577.89M553.98,577.94L553.97,577.90M54.02,577.94L54.02,578.00M54.06,577.94L54.02,577.94M54.06,577.94L54.06,578.00M304.00,577.94L54.06,577.94M553.94,577.94L304.00,577.94M553.94,577.94L553.94,578.00M553.98,578.00L553.98,577.94M54.02,578.00L54.02,578.06M54.06,578.00L54.06,578.06M553.94,578.00L553.94,578.06M553.98,578.06L553.98,578.00M54.02,578.06L54.03,578.10M54.03,578.10L54.06,578.11M304.00,578.06L54.06,578.06M54.06,578.11L304.00,578.11M553.94,578.06L304.00,578.06M304.00,578.11L553.94,578.11M553.94,578.06L553.94,578.11M553.98,578.06L553.94,578.06M553.94,578.11L553.97,578.10M553.97,578.10L553.98,578.06M553.97,577.90L553.98,577.94M553.94,577.89L553.97,577.90M553.94,577.89L553.94,577.94M304.00,577.89L553.94,577.89M54.06,577.89L304.00,577.89M54.03,577.90L54.06,577.89M54.02,577.94L54.03,577.90M553.98,577.94L553.98,578.00M553.94,577.94L553.98,577.94M553.94,577.94L553.94,578.00M304.00,577.94L553.94,577.94M54.06,577.94L304.00,577.94M54.06,577.94L54.06,578.00M54.02,578.00L54.02,577.94M553.98,578.00L553.98,578.06M553.94,578.00L553.94,578.06M54.06,578.00L54.06,578.06M54.02,578.06L54.02,578.00M553.98,578.06L553.97,578.10M553.97,578.10L553.94,578.11M304.00,578.06L553.94,578.06M553.94,578.11L304.00,578.11M54.06,578.06L304.00,578.06M304.00,578.11L54.06,578.11M54.06,578.06L54.06,578.11M54.02,578.06L54.06,578.06M54.06,578.11L54.03,578.10M54.03,578.10L54.02,578.06" fill="none" stroke="#2e3e38" stroke-width=".85"/><text x="48" y="713" font-size="11" fill="#6b736c">MODEL-DERIVED · no hidden-line removal</text><rect x="604" y="433" width="540" height="292" fill="none" stroke="#d6dbd0"/><text x="618" y="458" font-size="15">AXONOMETRIC</text><path d="M1074.93,692.74L1074.98,692.73M1074.98,692.73L1074.96,692.68M1074.98,692.73L1075.03,692.70M1074.98,694.09L1074.98,692.73M1074.98,695.46L1074.98,694.09M1074.98,695.46L1075.03,695.43M1075.03,692.70L1075.08,692.67M1075.03,695.43L1075.08,695.40M1075.08,694.03L1075.08,692.67M1075.08,695.40L1075.08,694.03M1075.08,695.40L1075.10,695.37M1075.07,695.43L1075.08,695.40M672.90,463.36L672.92,463.33M672.92,463.33L672.93,463.38M672.92,463.33L672.97,463.30M672.92,461.97L672.92,463.33M672.92,460.60L672.92,461.97M672.92,460.60L672.97,460.57M672.97,463.30L673.02,463.27M672.97,460.57L673.02,460.54M673.02,461.91L673.02,463.27M673.02,460.54L673.02,461.91M673.02,460.54L673.07,460.53M673.04,460.51L673.02,460.54M672.91,463.40L672.90,463.36M672.93,463.43L672.92,463.39M1074.93,695.47L1074.93,695.50M672.90,463.36L672.90,462.00M672.92,463.39L672.90,463.36M672.92,463.39L672.92,462.03M873.90,579.43L672.92,463.39M1074.87,695.46L873.90,579.43M1074.87,695.46L1074.87,694.09M1074.93,694.11L1074.93,695.47M672.90,462.00L672.90,460.63M672.92,462.03L672.92,460.66M1074.87,694.09L1074.87,692.73M1074.93,692.74L1074.93,694.11M672.90,460.63L672.91,460.59M873.90,576.69L672.92,460.66M1074.87,692.73L873.90,576.69M1074.87,692.73L1074.89,692.68M1074.93,692.74L1074.87,692.73M1074.93,692.70L1074.93,692.74M673.07,460.50L673.07,460.53M673.11,460.51L673.13,460.54M1075.10,692.64L1075.09,692.60M673.07,460.53L673.07,461.89M673.13,460.54L673.07,460.53M673.13,460.54L673.13,461.91M874.10,576.57L673.13,460.54M1075.08,692.61L874.10,576.57M1075.08,692.61L1075.08,693.97M1075.10,694.00L1075.10,692.64M673.07,461.89L673.07,463.26M673.13,461.91L673.13,463.27M1075.08,693.97L1075.08,695.34M1075.10,695.37L1075.10,694.00M673.07,463.26L673.07,463.30M874.10,579.31L673.13,463.27M1075.08,695.34L874.10,579.31M1075.08,695.34L1075.07,695.39M1075.10,695.37L1075.08,695.34M1075.09,695.41L1075.10,695.37M672.91,460.59L672.93,460.57M672.93,460.61L672.91,460.59M672.93,460.61L672.97,460.57M873.91,576.64L672.93,460.61M1074.89,692.68L873.91,576.64M1074.93,692.70L1074.89,692.68M1074.96,692.68L1074.93,692.70M672.93,460.57L672.99,460.54M672.97,460.57L672.93,460.57M672.97,460.57L673.02,460.54M873.95,576.60L672.97,460.57M1074.93,692.64L873.95,576.60M1074.93,692.64L1074.98,692.61M1075.01,692.65L1074.96,692.68M672.99,460.54L673.04,460.51M673.02,460.54L673.07,460.51M1074.98,692.61L1075.03,692.58M1075.07,692.62L1075.01,692.65M673.04,460.51L673.07,460.50M673.07,460.50L673.11,460.51M874.05,576.54L673.07,460.51M673.11,460.51L874.09,576.54M1075.03,692.58L874.05,576.54M874.09,576.54L1075.07,692.57M1075.03,692.58L1075.07,692.57M1075.07,692.62L1075.03,692.58M1075.07,692.57L1075.09,692.60M1075.09,692.60L1075.07,692.62M1074.93,695.50L1074.96,695.49M1074.89,695.49L1074.93,695.50M1074.89,695.49L1074.93,695.49M873.91,579.46L1074.89,695.49M672.93,463.43L873.91,579.46M672.91,463.40L672.93,463.43M672.93,463.38L672.91,463.40M1074.96,695.49L1075.01,695.46M1074.93,695.49L1074.96,695.49M1074.93,695.49L1074.98,695.46M873.95,579.46L1074.93,695.49M672.97,463.42L873.95,579.46M672.97,463.42L673.02,463.39M672.99,463.35L672.93,463.38M1075.01,695.46L1075.07,695.43M1074.98,695.46L1075.03,695.43M673.02,463.39L673.07,463.36M673.04,463.32L672.99,463.35M1075.07,695.43L1075.09,695.41M1075.09,695.41L1075.07,695.39M874.05,579.40L1075.03,695.43M1075.07,695.39L874.09,579.36M673.07,463.36L874.05,579.40M874.09,579.36L673.11,463.32M673.07,463.36L673.11,463.32M673.04,463.32L673.07,463.36M673.11,463.32L673.07,463.30M673.07,463.30L673.04,463.32" fill="none" stroke="#2e3e38" stroke-width=".85"/><text x="618" y="713" font-size="11" fill="#6b736c">MODEL-DERIVED · no hidden-line removal</text><text x="34" y="790" font-size="16">Factory | equipment-bluegreen</text><text x="34" y="823" font-size="13">現有模型導出的形體頁；獨立參考、接口、回裝與品質尚須逐項驗收。</text><text x="34" y="854" font-size="12">GT01 PARTS WAREHOUSE · PROVISIONAL · F-BENCH-08</text></g></svg>