<svg xmlns="http://www.w3.org/2000/svg" viewBox="0 0 1200 880"><rect width="1200" height="880" fill="#fffef9"/><g font-family="Segoe UI,Microsoft JhengHei,sans-serif" fill="#243b31"><text x="34" y="42" font-size="22">FC-5b1797d71a1c08 · insulated standing seam roof</text><text x="34" y="76" font-size="14">5400 × 12041.595 × 95 mm — geometry extent, not a manufacturing tolerance</text><rect x="34" y="115" width="540" height="292" fill="none" stroke="#d6dbd0"/><text x="48" y="140" font-size="15">FRONT / XZ</text><path d="M54.00,264.40L54.00,255.60M554.00,255.60L554.00,264.40M54.00,255.60L54.00,264.40M554.00,264.40L554.00,255.60M54.00,255.60L54.00,255.60M554.00,255.60L54.00,255.60M54.00,255.60L554.00,255.60M554.00,255.60L554.00,255.60M554.00,264.40L554.00,264.40M54.00,264.40L554.00,264.40M554.00,264.40L54.00,264.40M54.00,264.40L54.00,264.40" fill="none" stroke="#2e3e38" stroke-width=".85"/><text x="48" y="395" font-size="11" fill="#6b736c">MODEL-DERIVED · no hidden-line removal</text><rect x="604" y="115" width="540" height="292" fill="none" stroke="#d6dbd0"/><text x="618" y="140" font-size="15">SIDE / YZ</text><path d="M1124.00,261.97L1124.00,258.03M1124.00,258.03L1124.00,261.97M624.00,258.03L624.00,261.97M624.00,261.97L624.00,258.03M1124.00,258.03L624.00,258.03M1124.00,258.03L1124.00,258.03M624.00,258.03L624.00,258.03M624.00,258.03L1124.00,258.03M1124.00,261.97L624.00,261.97M1124.00,261.97L1124.00,261.97M624.00,261.97L624.00,261.97M624.00,261.97L1124.00,261.97" fill="none" stroke="#2e3e38" stroke-width=".85"/><text x="618" y="395" font-size="11" fill="#6b736c">MODEL-DERIVED · no hidden-line removal</text><rect x="34" y="433" width="540" height="292" fill="none" stroke="#d6dbd0"/><text x="48" y="458" font-size="15">TOP / XY</text><path d="M251.31,460.50L251.31,460.50M356.69,460.50L356.69,460.50M251.31,695.50L251.31,695.50M356.69,695.50L356.69,695.50M251.31,460.50L251.31,695.50M356.69,460.50L251.31,460.50M251.31,695.50L356.69,695.50M356.69,695.50L356.69,460.50M356.69,460.50L356.69,695.50M251.31,460.50L356.69,460.50M356.69,695.50L251.31,695.50M251.31,695.50L251.31,460.50" fill="none" stroke="#2e3e38" stroke-width=".85"/><text x="48" y="713" font-size="11" fill="#6b736c">MODEL-DERIVED · no hidden-line removal</text><rect x="604" y="433" width="540" height="292" fill="none" stroke="#d6dbd0"/><text x="618" y="458" font-size="15">AXONOMETRIC</text><path d="M672.68,623.53L672.68,620.99M797.34,692.97L797.34,695.50M950.66,460.50L950.66,463.03M1075.32,535.01L1075.32,532.47M672.68,620.99L950.66,460.50M797.34,692.97L672.68,620.99M950.66,460.50L1075.32,532.47M1075.32,532.47L797.34,692.97M797.34,695.50L1075.32,535.01M672.68,623.53L797.34,695.50M1075.32,535.01L950.66,463.03M950.66,463.03L672.68,623.53" fill="none" stroke="#2e3e38" stroke-width=".85"/><text x="618" y="713" font-size="11" fill="#6b736c">MODEL-DERIVED · no hidden-line removal</text><text x="34" y="790" font-size="16">Factory | standing-seam-roof</text><text x="34" y="823" font-size="13">現有模型導出的形體頁；獨立參考、接口、回裝與品質尚須逐項驗收。</text><text x="34" y="854" font-size="12">GT01 PARTS WAREHOUSE · PROVISIONAL · F-ROOF-01</text></g></svg>