<svg xmlns="http://www.w3.org/2000/svg" viewBox="0 0 1200 880"><rect width="1200" height="880" fill="#fffef9"/><g font-family="Segoe UI,Microsoft JhengHei,sans-serif" fill="#243b31"><text x="34" y="42" font-size="22">FC-96502a1c9fc870 · 葉柄 0/8</text><text x="34" y="76" font-size="14">39.808 × 17.776 × 33.523 mm — geometry extent, not a manufacturing tolerance</text><rect x="34" y="115" width="540" height="292" fill="none" stroke="#d6dbd0"/><text x="48" y="140" font-size="15">FRONT / XZ</text><path d="M180.27,374.87L190.24,364.67M185.71,377.50L195.71,367.27M187.42,375.78L197.39,365.57M184.74,370.36L194.64,360.23M178.71,363.32L188.51,353.29M171.61,357.33L181.33,347.39M166.18,354.70L175.86,344.79M164.47,356.42L174.18,346.48M167.15,361.84L176.93,351.83M183.06,358.77L173.18,368.88M190.24,364.67L200.04,354.38M195.71,367.27L205.54,356.95M197.39,365.57L207.21,355.27M194.64,360.23L204.40,349.99M188.51,353.29L198.20,343.11M181.33,347.39L190.97,337.28M175.86,344.79L185.47,334.71M174.18,346.48L183.80,336.38M176.93,351.83L186.61,341.67M192.81,348.54L183.06,358.77M200.04,354.38L209.73,344.03M205.54,356.95L215.25,346.58M207.21,355.27L216.90,344.91M204.40,349.99L214.07,339.67M198.20,343.11L207.82,332.84M190.97,337.28L200.55,327.04M185.47,334.71L195.03,324.49M183.80,336.38L193.38,326.16M186.61,341.67L196.22,331.40M202.46,338.23L192.81,348.54M209.73,344.03L219.34,333.65M215.25,346.58L224.87,336.20M216.90,344.91L226.52,334.54M214.07,339.67L223.66,329.31M207.82,332.84L217.40,322.50M200.55,327.04L210.11,316.73M195.03,324.49L204.58,314.18M193.38,326.16L202.93,315.84M196.22,331.40L205.79,321.07M212.06,327.88L202.46,338.23M219.34,333.65L228.91,323.30M224.87,336.20L234.44,325.84M226.52,334.54L236.09,324.18M223.66,329.31L233.24,318.95M217.40,322.50L226.97,312.14M210.11,316.73L219.68,306.36M204.58,314.18L214.16,303.82M202.93,315.84L212.51,305.48M205.79,321.07L215.36,310.71M221.63,317.52L212.06,327.88M228.91,323.30L238.48,312.99M234.44,325.84L243.99,315.55M236.09,324.18L245.65,313.88M233.24,318.95L242.81,308.63M226.97,312.14L236.57,301.79M219.68,306.36L229.31,295.99M214.16,303.82L223.79,293.44M212.51,305.48L222.14,295.10M215.36,310.71L224.97,300.36M231.21,307.19L221.63,317.52M238.48,312.99L248.06,302.78M243.99,315.55L253.56,305.36M245.65,313.88L255.23,303.68M242.81,308.63L252.43,298.38M236.57,301.79L246.24,291.50M229.31,295.99L239.02,285.65M223.79,293.44L233.52,283.07M222.14,295.10L231.86,284.75M224.97,300.36L234.65,290.05M240.84,296.93L231.21,307.19M248.06,302.78L257.71,292.70M253.56,305.36L263.18,295.30M255.23,303.68L264.87,293.60M252.43,298.38L262.13,288.25M246.24,291.50L256.01,281.29M239.02,285.65L248.85,275.37M233.52,283.07L243.39,272.77M231.86,284.75L241.70,274.47M234.65,290.05L244.44,279.82M250.55,286.78L240.84,296.93M257.71,292.70L267.45,282.79M263.18,295.30L272.88,285.43M264.87,293.60L274.59,283.71M262.13,288.25L271.94,278.27M256.01,281.29L265.92,271.21M248.85,275.37L258.85,265.20M243.39,272.77L253.42,262.56M241.70,274.47L251.71,264.28M244.44,279.82L254.37,269.72M260.38,276.79L250.55,286.78M267.45,282.79L277.32,273.11M272.88,285.43L282.70,275.80M274.59,283.71L284.45,274.04M271.94,278.27L281.89,268.50M265.92,271.21L276.01,261.30M258.85,265.20L269.05,255.19M253.42,262.56L263.68,252.50M251.71,264.28L261.93,254.25M254.37,269.72L264.49,259.79M270.37,266.99L260.38,276.79M277.32,273.11L287.35,263.69M282.70,275.80L292.67,266.45M284.45,274.04L294.45,264.65M281.89,268.50L292.03,258.99M276.01,261.30L286.32,251.63M269.05,255.19L279.51,245.38M263.68,252.50L274.19,242.63M261.93,254.25L272.40,244.43M264.49,259.79L274.83,250.09M280.54,257.45L270.37,266.99M287.35,263.69L297.57,254.62M292.67,266.45L302.81,257.44M294.45,264.65L304.65,255.60M292.03,258.99L302.38,249.80M286.32,251.63L296.89,242.25M279.51,245.38L290.25,235.85M274.19,242.63L285.01,233.02M272.40,244.43L283.18,234.87M274.83,250.09L285.44,240.67M290.94,248.21L280.54,257.45M297.57,254.62L308.02,245.95M302.81,257.44L313.16,248.86M304.65,255.60L315.06,246.96M302.38,249.80L312.99,241.00M296.89,242.25L307.75,233.24M290.25,235.85L301.34,226.65M285.01,233.02L296.20,223.74M283.18,234.87L294.30,225.64M285.44,240.67L296.36,231.60M301.60,239.36L290.94,248.21M308.02,245.95L318.74,237.72M313.16,248.86L323.78,240.71M315.06,246.96L325.75,238.76M312.99,241.00L323.90,232.63M307.75,233.24L318.94,224.66M301.34,226.65L312.76,217.88M296.20,223.74L307.72,214.90M294.30,225.64L305.75,216.85M296.36,231.60L307.60,222.98M312.56,230.95L301.60,239.36M318.74,237.72L329.78,229.88M323.78,240.71L334.72,232.93M325.75,238.76L336.75,230.94M323.90,232.63L335.10,224.67M318.94,224.66L330.39,216.51M312.76,217.88L324.42,209.59M307.72,214.90L319.48,206.54M305.75,216.85L317.45,208.53M307.60,222.98L319.11,214.80M323.82,222.95L312.56,230.95M329.78,229.88L341.08,222.37M334.72,232.93L345.94,225.48M336.75,230.94L348.03,223.45M335.10,224.67L346.54,217.07M330.39,216.51L342.05,208.77M324.42,209.59L336.28,201.72M319.48,206.54L331.42,198.61M317.45,208.53L329.34,200.64M319.11,214.80L330.82,207.02M335.31,215.32L323.82,222.95M341.08,222.37L352.62,215.15M345.94,225.48L357.41,218.29M348.03,223.45L359.54,216.24M346.54,217.07L358.20,209.77M342.05,208.77L353.89,201.35M336.28,201.72L348.27,194.21M331.42,198.61L343.48,191.06M329.34,200.64L341.35,193.11M330.82,207.02L342.70,199.58M347.00,208.00L335.31,215.32M352.62,215.15L364.35,208.14M357.41,218.29L369.09,211.32M359.54,216.24L371.25,209.25M358.20,209.77L370.02,202.71M353.89,201.35L365.85,194.21M348.27,194.21L360.35,186.99M343.48,191.06L355.61,183.81M341.35,193.11L353.45,185.89M342.70,199.58L354.69,192.42M358.85,200.92L347.00,208.00M364.35,208.14L376.24,201.28M369.09,211.32L380.94,204.48M371.25,209.25L383.13,202.40M370.02,202.71L381.96,195.82M365.85,194.21L377.89,187.27M360.35,186.99L372.47,180.00M355.61,183.81L367.76,176.80M353.45,185.89L365.58,178.89M354.69,192.42L366.74,185.47M370.82,194.02L358.85,200.92M376.24,201.28L388.24,194.50M380.94,204.48L392.93,197.71M383.13,202.40L395.12,195.61M381.96,195.82L393.99,189.02M377.89,187.27L389.96,180.44M372.47,180.00L384.58,173.16M367.76,176.80L379.89,169.95M365.58,178.89L377.69,172.04M366.74,185.47L378.83,178.64M382.85,187.22L370.82,194.02M388.24,194.50L400.32,187.71M392.93,197.71L405.01,190.92M395.12,195.61L407.20,188.82M393.99,189.02L406.06,182.23M389.96,180.44L402.03,173.66M384.58,173.16L396.64,166.38M379.89,169.95L391.95,163.17M377.69,172.04L389.75,165.26M378.83,178.64L390.89,171.85M394.93,180.43L382.85,187.22M400.32,187.71L412.43,180.84M405.01,190.92L417.14,184.03M407.20,188.82L419.32,181.94M406.06,182.23L418.14,175.38M402.03,173.66L414.05,166.83M396.64,166.38L408.61,159.58M391.95,163.17L403.90,156.39M389.75,165.26L401.72,158.47M390.89,171.85L402.90,165.04M406.99,173.58L394.93,180.43M412.43,180.84L424.54,173.80M417.14,184.03L429.29,176.97M419.32,181.94L431.45,174.90M418.14,175.38L430.19,168.38M414.05,166.83L425.99,159.90M408.61,159.58L420.46,152.69M403.90,156.39L415.72,149.52M401.72,158.47L413.56,151.59M402.90,165.04L414.82,158.11M419.02,166.59L406.99,173.58M424.54,173.80L436.61,166.51M429.29,176.97L441.41,169.65M431.45,174.90L443.53,167.60M430.19,168.38L442.15,161.15M425.99,159.90L437.81,152.76M420.46,152.69L432.15,145.64M415.72,149.52L427.35,142.50M413.56,151.59L425.23,144.55M414.82,158.11L426.60,151.00M430.95,159.39L419.02,166.59M180.27,374.87L173.18,368.88M185.71,377.50L180.27,374.87M187.42,375.78L185.71,377.50M184.74,370.36L187.42,375.78M178.71,363.32L184.74,370.36M171.61,357.33L178.71,363.32M166.18,354.70L171.61,357.33M164.47,356.42L166.18,354.70M167.15,361.84L164.47,356.42M173.18,368.88L167.15,361.84M430.95,159.39L436.61,166.51M436.61,166.51L441.41,169.65M441.41,169.65L443.53,167.60M443.53,167.60L442.15,161.15M442.15,161.15L437.81,152.76M437.81,152.76L432.15,145.64M432.15,145.64L427.35,142.50M427.35,142.50L425.23,144.55M425.23,144.55L426.60,151.00M426.60,151.00L430.95,159.39" fill="none" stroke="#2e3e38" stroke-width=".85"/><text x="48" y="395" font-size="11" fill="#6b736c">MODEL-DERIVED · no hidden-line removal</text><rect x="604" y="115" width="540" height="292" fill="none" stroke="#d6dbd0"/><text x="618" y="140" font-size="15">SIDE / YZ</text><path d="M839.26,374.87L842.90,364.67M831.64,377.50L835.29,367.27M822.22,375.78L825.87,365.57M814.60,370.36L818.22,360.23M811.69,363.32L815.27,353.29M814.60,357.33L818.15,347.39M822.22,354.70L825.76,344.79M831.64,356.42L835.19,346.48M839.26,361.84L842.83,351.83M845.78,358.77L842.17,368.88M842.90,364.67L846.48,354.38M835.29,367.27L838.88,356.95M825.87,365.57L829.45,355.27M818.22,360.23L821.79,349.99M815.27,353.29L818.81,343.11M818.15,347.39L821.67,337.28M825.76,344.79L829.27,334.71M835.19,346.48L838.70,336.38M842.83,351.83L846.37,341.67M849.34,348.54L845.78,358.77M846.48,354.38L850.02,344.03M838.88,356.95L842.43,346.58M829.45,355.27L832.99,344.91M821.79,349.99L825.31,339.67M818.81,343.11L822.33,332.84M821.67,337.28L825.17,327.04M829.27,334.71L832.76,324.49M838.70,336.38L842.20,326.16M846.37,341.67L849.87,331.40M852.86,338.23L849.34,348.54M850.02,344.03L853.53,333.65M842.43,346.58L845.94,336.20M832.99,344.91L836.50,334.54M825.31,339.67L828.82,329.31M822.33,332.84L825.83,322.50M825.17,327.04L828.66,316.73M832.76,324.49L836.25,314.18M842.20,326.16L845.69,315.84M849.87,331.40L853.37,321.07M856.37,327.88L852.86,338.23M853.53,333.65L857.02,323.30M845.94,336.20L849.44,325.84M836.50,334.54L840.00,324.18M828.82,329.31L832.31,318.95M825.83,322.50L829.32,312.14M828.66,316.73L832.16,306.36M836.25,314.18L839.75,303.82M845.69,315.84L849.18,305.48M853.37,321.07L856.87,310.71M859.86,317.52L856.37,327.88M857.02,323.30L860.51,312.99M849.44,325.84L852.92,315.55M840.00,324.18L843.49,313.88M832.31,318.95L835.81,308.63M829.32,312.14L832.83,301.79M832.16,306.36L835.67,295.99M839.75,303.82L843.27,293.44M849.18,305.48L852.70,295.10M856.87,310.71L860.38,300.36M863.36,307.19L859.86,317.52M860.51,312.99L864.02,302.78M852.92,315.55L856.42,305.36M843.49,313.88L846.99,303.68M835.81,308.63L839.33,298.38M832.83,301.79L836.36,291.50M835.67,295.99L839.22,285.65M843.27,293.44L846.82,283.07M852.70,295.10L856.25,284.75M860.38,300.36L863.91,290.05M866.88,296.93L863.36,307.19M864.02,302.78L867.54,292.70M856.42,305.36L859.93,295.30M846.99,303.68L850.51,293.60M839.33,298.38L842.87,288.25M836.36,291.50L839.93,281.29M839.22,285.65L842.81,275.37M846.82,283.07L850.42,272.77M856.25,284.75L859.84,274.47M863.91,290.05L867.49,279.82M870.42,286.78L866.88,296.93M867.54,292.70L871.10,282.79M859.93,295.30L863.48,285.43M850.51,293.60L854.06,283.71M842.87,288.25L846.45,278.27M839.93,281.29L843.55,271.21M842.81,275.37L846.46,265.20M850.42,272.77L854.09,262.56M859.84,274.47L863.50,264.28M867.49,279.82L871.11,269.72M874.01,276.79L870.42,286.78M871.10,282.79L874.70,273.11M863.48,285.43L867.06,275.80M854.06,283.71L857.66,274.04M846.45,278.27L850.08,268.50M843.55,271.21L847.23,261.30M846.46,265.20L850.19,255.19M854.09,262.56L857.83,252.50M863.50,264.28L867.23,254.25M871.11,269.72L874.81,259.79M877.66,266.99L874.01,276.79M874.70,273.11L878.36,263.69M867.06,275.80L870.70,266.45M857.66,274.04L861.31,264.65M850.08,268.50L853.79,258.99M847.23,261.30L851.00,251.63M850.19,255.19L854.01,245.38M857.83,252.50L861.67,242.63M867.23,254.25L871.06,244.43M874.81,259.79L878.58,250.09M881.38,257.45L877.66,266.99M878.36,263.69L882.10,254.62M870.70,266.45L874.40,257.44M861.31,264.65L865.04,255.60M853.79,258.99L857.57,249.80M851.00,251.63L854.85,242.25M854.01,245.38L857.93,235.85M861.67,242.63L865.62,233.02M871.06,244.43L874.99,234.87M878.58,250.09L882.46,240.67M885.17,248.21L881.38,257.45M882.10,254.62L885.91,245.95M874.40,257.44L878.18,248.86M865.04,255.60L868.84,246.96M857.57,249.80L861.44,241.00M854.85,242.25L858.82,233.24M857.93,235.85L861.98,226.65M865.62,233.02L869.71,223.74M874.99,234.87L879.05,225.64M882.46,240.67L886.45,231.60M889.07,239.36L885.17,248.21M885.91,245.95L889.83,237.72M878.18,248.86L882.06,240.71M868.84,246.96L872.74,238.76M861.44,241.00L865.42,232.63M858.82,233.24L862.91,224.66M861.98,226.65L866.15,217.88M869.71,223.74L873.92,214.90M879.05,225.64L883.24,216.85M886.45,231.60L890.55,222.98M893.07,230.95L889.07,239.36M889.83,237.72L893.86,229.88M882.06,240.71L886.06,232.93M872.74,238.76L876.76,230.94M865.42,232.63L869.51,224.67M862.91,224.66L867.09,216.51M866.15,217.88L870.41,209.59M873.92,214.90L878.21,206.54M883.24,216.85L887.51,208.53M890.55,222.98L894.75,214.80M897.18,222.95L893.07,230.95M893.86,229.88L897.99,222.37M886.06,232.93L890.16,225.48M876.76,230.94L880.88,223.45M869.51,224.67L873.69,217.07M867.09,216.51L871.35,208.77M870.41,209.59L874.74,201.72M878.21,206.54L882.57,198.61M887.51,208.53L891.85,200.64M894.75,214.80L899.03,207.02M901.38,215.32L897.18,222.95M897.99,222.37L902.20,215.15M890.16,225.48L894.35,218.29M880.88,223.45L885.08,216.24M873.69,217.07L877.95,209.77M871.35,208.77L875.67,201.35M874.74,201.72L879.12,194.21M882.57,198.61L886.98,191.06M891.85,200.64L896.24,193.11M899.03,207.02L903.37,199.58M905.65,208.00L901.38,215.32M902.20,215.15L906.48,208.14M894.35,218.29L898.61,211.32M885.08,216.24L889.36,209.25M877.95,209.77L882.27,202.71M875.67,201.35L880.04,194.21M879.12,194.21L883.53,186.99M886.98,191.06L891.41,183.81M896.24,193.11L900.66,185.89M903.37,199.58L907.75,192.42M909.97,200.92L905.65,208.00M906.48,208.14L910.83,201.28M898.61,211.32L902.94,204.48M889.36,209.25L893.70,202.40M882.27,202.71L886.63,195.82M880.04,194.21L884.44,187.27M883.53,186.99L887.96,180.00M891.41,183.81L895.84,176.80M900.66,185.89L905.08,178.89M907.75,192.42L912.15,185.47M914.34,194.02L909.97,200.92M910.83,201.28L915.21,194.50M902.94,204.48L907.32,197.71M893.70,202.40L898.08,195.61M886.63,195.82L891.02,189.02M884.44,187.27L888.85,180.44M887.96,180.00L892.38,173.16M895.84,176.80L900.27,169.95M905.08,178.89L909.51,172.04M912.15,185.47L916.56,178.64M918.74,187.22L914.34,194.02M915.21,194.50L919.62,187.71M907.32,197.71L911.73,190.92M898.08,195.61L902.49,188.82M891.02,189.02L895.43,182.23M888.85,180.44L893.25,173.66M892.38,173.16L896.78,166.38M900.27,169.95L904.68,163.17M909.51,172.04L913.91,165.26M916.56,178.64L920.97,171.85M923.15,180.43L918.74,187.22M919.62,187.71L924.04,180.84M911.73,190.92L916.16,184.03M902.49,188.82L906.92,181.94M895.43,182.23L899.84,175.38M893.25,173.66L897.64,166.83M896.78,166.38L901.16,159.58M904.68,163.17L909.04,156.39M913.91,165.26L918.28,158.47M920.97,171.85L925.36,165.04M927.56,173.58L923.15,180.43M924.04,180.84L928.47,173.80M916.16,184.03L920.60,176.97M906.92,181.94L911.34,174.90M899.84,175.38L904.24,168.38M897.64,166.83L902.00,159.90M901.16,159.58L905.48,152.69M909.04,156.39L913.35,149.52M918.28,158.47L922.61,151.59M925.36,165.04L929.71,158.11M931.95,166.59L927.56,173.58M928.47,173.80L932.87,166.51M920.60,176.97L925.02,169.65M911.34,174.90L915.76,167.60M904.24,168.38L908.61,161.15M902.00,159.90L906.32,152.76M905.48,152.69L909.75,145.64M913.35,149.52L917.60,142.50M922.61,151.59L926.87,144.55M929.71,158.11L934.01,151.00M936.31,159.39L931.95,166.59M839.26,374.87L842.17,368.88M831.64,377.50L839.26,374.87M822.22,375.78L831.64,377.50M814.60,370.36L822.22,375.78M811.69,363.32L814.60,370.36M814.60,357.33L811.69,363.32M822.22,354.70L814.60,357.33M831.64,356.42L822.22,354.70M839.26,361.84L831.64,356.42M842.17,368.88L839.26,361.84M936.31,159.39L932.87,166.51M932.87,166.51L925.02,169.65M925.02,169.65L915.76,167.60M915.76,167.60L908.61,161.15M908.61,161.15L906.32,152.76M906.32,152.76L909.75,145.64M909.75,145.64L917.60,142.50M917.60,142.50L926.87,144.55M926.87,144.55L934.01,151.00M934.01,151.00L936.31,159.39" fill="none" stroke="#2e3e38" stroke-width=".85"/><text x="618" y="395" font-size="11" fill="#6b736c">MODEL-DERIVED · no hidden-line removal</text><rect x="34" y="433" width="540" height="292" fill="none" stroke="#d6dbd0"/><text x="48" y="458" font-size="15">TOP / XY</text><path d="M82.31,640.25L100.16,633.73M92.06,653.90L109.97,647.35M95.11,670.77L112.99,664.24M90.32,684.42L108.06,677.94M79.51,689.63L97.07,683.22M66.80,684.42L84.22,678.06M57.06,670.77L74.41,664.43M54.00,653.90L71.39,647.54M58.79,640.25L76.32,633.85M87.31,628.57L69.61,635.03M100.16,633.73L117.73,627.31M109.97,647.35L127.59,640.92M112.99,664.24L130.57,657.82M108.06,677.94L125.55,671.55M97.07,683.22L114.44,676.88M84.22,678.06L101.48,671.76M74.41,664.43L91.62,658.15M71.39,647.54L88.64,641.25M76.32,633.85L93.66,627.51M104.78,622.19L87.31,628.57M117.73,627.31L135.10,620.97M127.59,640.92L144.98,634.57M130.57,657.82L147.95,651.48M125.55,671.55L142.86,665.23M114.44,676.88L131.67,670.58M101.48,671.76L118.64,665.49M91.62,658.15L108.76,651.89M88.64,641.25L105.79,634.98M93.66,627.51L110.88,621.23M122.07,615.87L104.78,622.19M135.10,620.97L152.32,614.68M144.98,634.57L162.22,628.27M147.95,651.48L165.17,645.18M142.86,665.23L160.06,658.95M131.67,670.58L148.83,664.32M118.64,665.49L135.77,659.23M108.76,651.89L125.87,645.64M105.79,634.98L122.92,628.73M110.88,621.23L128.03,614.96M139.26,609.60L122.07,615.87M152.32,614.68L169.47,608.42M162.22,628.27L179.36,622.01M165.17,645.18L182.32,638.92M160.06,658.95L177.21,652.69M148.83,664.32L165.98,658.05M135.77,659.23L152.93,652.97M125.87,645.64L143.03,639.37M122.92,628.73L140.07,622.46M128.03,614.96L145.19,608.70M156.41,603.33L139.26,609.60M169.47,608.42L186.60,602.16M179.36,622.01L196.48,615.76M182.32,638.92L199.45,632.67M177.21,652.69L194.37,646.42M165.98,658.05L183.19,651.77M152.93,652.97L170.17,646.67M143.03,639.37L160.29,633.07M140.07,622.46L157.33,616.16M145.19,608.70L162.40,602.41M173.58,597.06L156.41,603.33M186.60,602.16L203.78,595.89M196.48,615.76L213.62,609.50M199.45,632.67L216.61,626.40M194.37,646.42L211.61,640.13M183.19,651.77L200.51,645.44M170.17,646.67L187.57,640.31M160.29,633.07L177.73,626.70M157.33,616.16L174.74,609.80M162.40,602.41L179.74,596.08M190.84,590.76L173.58,597.06M203.78,595.89L221.06,589.58M213.62,609.50L230.86,603.21M216.61,626.40L233.88,620.09M211.61,640.13L228.98,633.78M200.51,645.44L218.02,639.05M187.57,640.31L205.19,633.88M177.73,626.70L195.40,620.25M174.74,609.80L192.37,603.36M179.74,596.08L197.28,589.67M208.24,584.41L190.84,590.76M221.06,589.58L238.52,583.20M230.86,603.21L248.25,596.86M233.88,620.09L251.31,613.73M228.98,633.78L246.55,627.36M218.02,639.05L235.78,632.56M205.19,633.88L223.11,627.34M195.40,620.25L213.38,613.68M192.37,603.36L210.31,596.81M197.28,589.67L215.07,583.17M225.85,577.97L208.24,584.41M238.52,583.20L256.20,576.74M248.25,596.86L265.84,590.43M251.31,613.73L268.96,607.28M246.55,627.36L264.39,620.85M235.78,632.56L253.85,625.96M223.11,627.34L241.39,620.66M213.38,613.68L231.75,606.97M210.31,596.81L228.62,590.13M215.07,583.17L233.20,576.55M243.74,571.44L225.85,577.97M256.20,576.74L274.17,570.18M265.84,590.43L283.69,583.91M268.96,607.28L286.89,600.73M264.39,620.85L282.55,614.22M253.85,625.96L272.32,619.22M241.39,620.66L260.11,613.82M231.75,606.97L250.59,600.09M228.62,590.13L247.39,583.27M233.20,576.55L251.73,569.79M261.96,564.79L243.74,571.44M274.17,570.18L292.48,563.49M283.69,583.91L301.87,577.27M286.89,600.73L305.16,594.06M282.55,614.22L301.10,607.44M272.32,619.22L291.25,612.30M260.11,613.82L279.36,606.79M250.59,600.09L269.98,593.01M247.39,583.27L266.69,576.22M251.73,569.79L270.74,562.84M280.60,557.98L261.96,564.79M292.48,563.49L311.20,556.66M301.87,577.27L320.41,570.50M305.16,594.06L323.81,587.25M301.10,607.44L320.11,600.50M291.25,612.30L310.72,605.19M279.36,606.79L299.23,599.54M269.98,593.01L290.02,585.69M266.69,576.22L286.61,568.95M270.74,562.84L290.31,555.70M299.70,551.00L280.60,557.98M311.20,556.66L330.42,549.64M320.41,570.50L339.44,563.55M323.81,587.25L342.97,580.25M320.11,600.50L339.65,593.36M310.72,605.19L330.76,597.88M299.23,599.54L319.69,592.07M290.02,585.69L310.67,578.15M286.61,568.95L307.14,561.45M290.31,555.70L310.45,548.34M319.35,543.83L299.70,551.00M330.42,549.64L350.19,542.42M339.44,563.55L359.04,556.39M342.97,580.25L362.68,573.06M339.65,593.36L359.71,586.04M330.76,597.88L351.28,590.38M319.69,592.07L340.59,584.43M310.67,578.15L331.74,570.46M307.14,561.45L328.10,553.80M310.45,548.34L331.07,540.81M339.50,536.47L319.35,543.83M350.19,542.42L370.45,535.02M359.04,556.39L379.15,549.05M362.68,573.06L382.89,565.68M359.71,586.04L380.22,578.55M351.28,590.38L372.18,582.75M340.59,584.43L361.84,576.67M331.74,570.46L353.13,562.64M328.10,553.80L349.40,546.02M331.07,540.81L352.06,533.15M360.10,528.95L339.50,536.47M370.45,535.02L391.12,527.47M379.15,549.05L399.70,541.55M382.89,565.68L403.52,558.14M380.22,578.55L401.11,570.92M372.18,582.75L393.39,575.00M361.84,576.67L383.32,568.83M353.13,562.64L374.74,554.75M349.40,546.02L370.93,538.16M352.06,533.15L373.34,525.38M381.05,521.30L360.10,528.95M391.12,527.47L412.14,519.80M399.70,541.55L420.62,533.90M403.52,558.14L424.50,550.48M401.11,570.92L422.28,563.19M393.39,575.00L414.82,567.18M383.32,568.83L404.96,560.92M374.74,554.75L396.48,546.81M370.93,538.16L392.60,530.24M373.34,525.38L394.82,517.53M402.28,513.54L381.05,521.30M412.14,519.80L433.43,512.02M420.62,533.90L441.86,526.15M424.50,550.48L445.77,542.71M422.28,563.19L443.69,555.37M414.82,567.18L436.39,559.30M404.96,560.92L426.67,553.00M396.48,546.81L418.25,538.86M392.60,530.24L414.33,522.31M394.82,517.53L416.42,509.64M423.72,505.71L402.28,513.54M433.43,512.02L454.93,504.17M441.86,526.15L463.33,518.31M445.77,542.71L467.27,534.86M443.69,555.37L465.24,547.50M436.39,559.30L458.02,551.40M426.67,553.00L448.37,545.07M418.25,538.86L439.97,530.93M414.33,522.31L436.04,514.38M416.42,509.64L438.07,501.74M445.28,497.84L423.72,505.71M454.93,504.17L476.58,496.26M463.33,518.31L484.98,510.40M467.27,534.86L488.91,526.96M465.24,547.50L486.87,539.60M458.02,551.40L479.64,543.50M448.37,545.07L469.98,537.18M439.97,530.93L461.58,523.04M436.04,514.38L457.65,506.48M438.07,501.74L459.69,493.84M466.92,489.94L445.28,497.84M476.58,496.26L498.28,488.34M484.98,510.40L506.72,502.46M488.91,526.96L510.63,519.02M486.87,539.60L508.52,531.70M479.64,543.50L501.19,535.64M469.98,537.18L491.44,529.34M461.58,523.04L483.00,515.22M457.65,506.48L479.09,498.65M459.69,493.84L481.21,485.98M488.54,482.04L466.92,489.94M498.28,488.34L519.98,480.41M506.72,502.46L528.49,494.51M510.63,519.02L532.35,511.09M508.52,531.70L530.10,523.81M501.19,535.64L522.58,527.82M491.44,529.34L512.67,521.59M483.00,515.22L504.16,507.49M479.09,498.65L500.30,490.91M481.21,485.98L502.56,478.18M510.08,474.17L488.54,482.04M519.98,480.41L541.59,472.52M528.49,494.51L550.20,486.58M532.35,511.09L554.00,503.19M530.10,523.81L551.53,515.99M522.58,527.82L543.75,520.09M512.67,521.59L533.61,513.94M504.16,507.49L525.00,499.88M500.30,490.91L521.20,483.27M502.56,478.18L523.67,470.47M531.46,466.37L510.08,474.17M82.31,640.25L69.61,635.03M92.06,653.90L82.31,640.25M95.11,670.77L92.06,653.90M90.32,684.42L95.11,670.77M79.51,689.63L90.32,684.42M66.80,684.42L79.51,689.63M57.06,670.77L66.80,684.42M54.00,653.90L57.06,670.77M58.79,640.25L54.00,653.90M69.61,635.03L58.79,640.25M531.46,466.37L541.59,472.52M541.59,472.52L550.20,486.58M550.20,486.58L554.00,503.19M554.00,503.19L551.53,515.99M551.53,515.99L543.75,520.09M543.75,520.09L533.61,513.94M533.61,513.94L525.00,499.88M525.00,499.88L521.20,483.27M521.20,483.27L523.67,470.47M523.67,470.47L531.46,466.37" fill="none" stroke="#2e3e38" stroke-width=".85"/><text x="48" y="713" font-size="11" fill="#6b736c">MODEL-DERIVED · no hidden-line removal</text><rect x="604" y="433" width="540" height="292" fill="none" stroke="#d6dbd0"/><text x="618" y="458" font-size="15">AXONOMETRIC</text><path d="M655.92,687.07L671.29,677.54M687.66,691.40L703.09,681.84M714.70,675.75L730.10,666.21M726.72,646.09L742.00,636.63M719.12,613.76L734.25,604.38M694.80,591.09L709.81,581.79M663.06,586.75L678.01,577.49M636.02,602.40L651.00,593.12M624.00,632.06L639.10,622.71M646.85,654.95L631.60,664.40M671.29,677.54L686.43,667.44M703.09,681.84L718.26,671.71M730.10,666.21L745.25,656.10M742.00,636.63L757.06,626.57M734.25,604.38L749.21,594.40M709.81,581.79L724.67,571.87M678.01,577.49L692.84,567.59M651.00,593.12L665.85,583.20M639.10,622.71L654.03,612.74M661.89,644.91L646.85,654.95M686.43,667.44L701.38,656.95M718.26,671.71L733.25,661.20M745.25,656.10L760.21,645.60M757.06,626.57L771.98,616.11M749.21,594.40L764.05,583.98M724.67,571.87L739.46,561.50M692.84,567.59L707.60,557.24M665.85,583.20L680.63,572.84M654.03,612.74L668.86,602.34M676.79,634.46L661.89,644.91M701.38,656.95L716.22,646.25M733.25,661.20L748.09,650.49M760.21,645.60L775.05,634.90M771.98,616.11L786.79,605.42M764.05,583.98L778.83,573.32M739.46,561.50L754.21,550.86M707.60,557.24L722.34,546.61M680.63,572.84L695.38,562.20M668.86,602.34L683.64,591.68M691.60,623.78L676.79,634.46M716.22,646.25L730.99,635.51M748.09,650.49L762.86,639.76M775.05,634.90L789.82,624.16M786.79,605.42L801.56,594.69M778.83,573.32L793.61,562.58M754.21,550.86L768.99,540.11M722.34,546.61L737.12,535.86M695.38,562.20L710.16,551.46M683.64,591.68L698.42,580.93M706.37,613.04L691.60,623.78M730.99,635.51L745.74,624.91M762.86,639.76L777.60,629.16M789.82,624.16L804.57,613.56M801.56,594.69L816.35,584.06M793.61,562.58L808.43,551.93M768.99,540.11L783.85,529.44M737.12,535.86L751.99,525.18M710.16,551.46L725.02,540.78M698.42,580.93L713.25,570.28M721.16,602.41L706.37,613.04M745.74,624.91L760.54,614.61M777.60,629.16L792.37,618.89M804.57,613.56L819.36,603.27M816.35,584.06L831.19,573.73M808.43,551.93L823.35,541.55M783.85,529.44L798.83,519.01M751.99,525.18L767.00,514.73M725.02,540.78L740.02,530.34M713.25,570.28L728.18,559.88M736.02,592.07L721.16,602.41M760.54,614.61L775.43,604.79M792.37,618.89L807.22,609.10M819.36,603.27L834.23,593.47M831.19,573.73L846.16,563.87M823.35,541.55L838.43,531.61M798.83,519.01L814.01,509.00M767.00,514.73L782.22,504.70M740.02,530.34L755.21,520.33M728.18,559.88L743.29,549.93M751.01,582.19L736.02,592.07M775.43,604.79L790.47,595.65M807.22,609.10L822.20,599.99M834.23,593.47L849.25,584.34M846.16,563.87L861.29,554.66M838.43,531.61L853.73,522.30M814.01,509.00L829.44,499.62M782.22,504.70L797.71,495.27M755.21,520.33L770.66,510.93M743.29,549.93L758.62,540.60M766.18,572.96L751.01,582.19M790.47,595.65L805.70,587.37M822.20,599.99L837.35,591.75M849.25,584.34L864.45,576.07M861.29,554.66L876.66,546.31M853.73,522.30L869.30,513.84M829.44,499.62L845.19,491.06M797.71,495.27L813.54,486.67M770.66,510.93L786.43,502.35M758.62,540.60L774.23,532.11M781.59,564.59L766.18,572.96M805.70,587.37L821.18,580.17M837.35,591.75L852.73,584.60M864.45,576.07L879.90,568.88M876.66,546.31L892.30,539.03M869.30,513.84L885.21,506.44M845.19,491.06L861.32,483.56M813.54,486.67L829.77,479.13M786.43,502.35L802.60,494.84M774.23,532.11L790.19,524.69M797.29,557.28L781.59,564.59M821.18,580.17L836.95,574.28M852.73,584.60L868.38,578.76M879.90,568.88L895.63,563.02M892.30,539.03L908.29,533.07M885.21,506.44L901.51,500.35M861.32,483.56L877.90,477.37M829.77,479.13L846.47,472.89M802.60,494.84L819.22,488.64M790.19,524.69L806.57,518.58M813.34,551.29L797.29,557.28M836.95,574.28L853.07,569.96M868.38,578.76L884.35,574.48M895.63,563.02L911.70,558.71M908.29,533.07L924.66,528.68M901.51,500.35L918.29,495.86M877.90,477.37L895.01,472.79M846.47,472.89L863.73,468.27M819.22,488.64L836.39,484.04M806.57,518.58L823.43,514.07M829.80,546.89L813.34,551.29M853.07,569.96L869.63,567.42M884.35,574.48L900.75,571.96M911.70,558.71L928.20,556.17M924.66,528.68L941.49,526.09M918.29,495.86L935.55,493.21M895.01,472.79L912.64,470.08M863.73,468.27L881.52,465.54M836.39,484.04L854.07,481.32M823.43,514.07L840.78,511.40M846.72,544.29L829.80,546.89M869.63,567.42L886.66,566.54M900.75,571.96L917.63,571.08M928.20,556.17L945.18,555.30M941.49,526.09L958.77,525.20M935.55,493.21L953.22,492.29M912.64,470.08L930.64,469.15M881.52,465.54L899.67,464.60M854.07,481.32L872.12,480.39M840.78,511.40L858.53,510.48M864.08,543.39L846.72,544.29M886.66,566.54L904.11,567.13M917.63,571.08L934.96,571.67M945.18,555.30L962.58,555.88M958.77,525.20L976.44,525.80M953.22,492.29L971.23,492.90M930.64,469.15L948.94,469.76M899.67,464.60L918.09,465.22M872.12,480.39L890.47,481.01M858.53,510.48L876.61,511.09M881.82,543.99L864.08,543.39M904.11,567.13L921.91,568.95M934.96,571.67L952.66,573.49M962.58,555.88L980.35,557.71M976.44,525.80L994.42,527.64M971.23,492.90L989.50,494.78M948.94,469.76L967.45,471.66M918.09,465.22L936.71,467.13M890.47,481.01L909.01,482.91M876.61,511.09L894.94,512.97M899.87,545.84L881.82,543.99M921.91,568.95L940.02,571.77M952.66,573.49L970.68,576.29M980.35,557.71L998.43,560.51M994.42,527.64L1012.67,530.48M989.50,494.78L1007.95,497.64M967.45,471.66L986.09,474.55M936.71,467.13L955.43,470.04M909.01,482.91L927.68,485.81M894.94,512.97L913.44,515.84M918.16,548.68L899.87,545.84M940.02,571.77L958.36,575.29M970.68,576.29L988.97,579.80M998.43,560.51L1016.75,564.04M1012.67,530.48L1031.10,534.02M1007.95,497.64L1026.53,501.21M986.09,474.55L1004.79,478.15M955.43,470.04L974.18,473.64M927.68,485.81L946.40,489.40M913.44,515.84L932.05,519.42M936.62,552.23L918.16,548.68M958.36,575.29L976.88,579.24M988.97,579.80L1007.47,583.75M1016.75,564.04L1035.27,567.99M1031.10,534.02L1049.67,537.98M1026.53,501.21L1045.17,505.19M1004.79,478.15L1023.48,482.14M974.18,473.64L992.90,477.63M946.40,489.40L965.10,493.39M932.05,519.42L950.70,523.40M955.20,556.19L936.62,552.23M976.88,579.24L995.53,583.33M1007.47,583.75L1026.11,587.83M1035.27,567.99L1053.91,572.07M1049.67,537.98L1068.30,542.06M1045.17,505.19L1063.79,509.27M1023.48,482.14L1042.10,486.22M992.90,477.63L1011.51,481.71M965.10,493.39L983.71,497.47M950.70,523.40L969.32,527.48M973.83,560.27L955.20,556.19M995.53,583.33L1014.22,587.24M1026.11,587.83L1044.84,591.76M1053.91,572.07L1072.62,575.99M1068.30,542.06L1086.95,545.97M1063.79,509.27L1082.35,513.16M1042.10,486.22L1060.58,490.09M1011.51,481.71L1029.96,485.58M983.71,497.47L1002.19,501.34M969.32,527.48L987.86,531.36M992.46,564.18L973.83,560.27M1014.22,587.24L1032.92,590.69M1044.84,591.76L1063.60,595.21M1072.62,575.99L1091.33,579.44M1086.95,545.97L1105.53,549.39M1082.35,513.16L1100.77,516.55M1060.58,490.09L1078.87,493.46M1029.96,485.58L1048.19,488.93M1002.19,501.34L1020.45,504.71M987.86,531.36L1006.25,534.75M1011.01,567.60L992.46,564.18M1032.92,590.69L1051.53,593.36M1063.60,595.21L1082.30,597.90M1091.33,579.44L1109.98,582.12M1105.53,549.39L1124.00,552.04M1100.77,516.55L1119.01,519.17M1078.87,493.46L1096.91,496.05M1048.19,488.93L1066.14,491.51M1020.45,504.71L1038.46,507.29M1006.25,534.75L1024.44,537.36M1029.43,570.24L1011.01,567.60M655.92,687.07L631.60,664.40M687.66,691.40L655.92,687.07M714.70,675.75L687.66,691.40M726.72,646.09L714.70,675.75M719.12,613.76L726.72,646.09M694.80,591.09L719.12,613.76M663.06,586.75L694.80,591.09M636.02,602.40L663.06,586.75M624.00,632.06L636.02,602.40M631.60,664.40L624.00,632.06M1029.43,570.24L1051.53,593.36M1051.53,593.36L1082.30,597.90M1082.30,597.90L1109.98,582.12M1109.98,582.12L1124.00,552.04M1124.00,552.04L1119.01,519.17M1119.01,519.17L1096.91,496.05M1096.91,496.05L1066.14,491.51M1066.14,491.51L1038.46,507.29M1038.46,507.29L1024.44,537.36M1024.44,537.36L1029.43,570.24" fill="none" stroke="#2e3e38" stroke-width=".85"/><text x="618" y="713" font-size="11" fill="#6b736c">MODEL-DERIVED · no hidden-line removal</text><text x="34" y="790" font-size="16">f4caee6e-f517-45d2-bba0-d9e46b57dd0f</text><text x="34" y="823" font-size="13">現有模型導出的形體頁；獨立參考、接口、回裝與品質尚須逐項驗收。</text><text x="34" y="854" font-size="12">GT01 PARTS WAREHOUSE · PROVISIONAL · F-PLANT-1 / F-PLANT-2 / F-PLANT-3 / F-PLANT-4 / F-PLANT-5 / F-PLANT-6 / F-PLANT-7</text></g></svg>