<svg xmlns="http://www.w3.org/2000/svg" viewBox="0 0 1200 880"><rect width="1200" height="880" fill="#fffef9"/><g font-family="Segoe UI,Microsoft JhengHei,sans-serif" fill="#243b31"><text x="34" y="42" font-size="22">FC-94a768fdb2f31a · lounge chair curved back</text><text x="34" y="76" font-size="14">748.5 × 238.5 × 750 mm — geometry extent, not a manufacturing tolerance</text><rect x="34" y="115" width="540" height="292" fill="none" stroke="#d6dbd0"/><text x="48" y="140" font-size="15">FRONT / XZ</text><path d="M392.68,377.50L396.35,377.50M392.75,372.87L396.66,372.87M392.72,145.86L396.54,145.86M392.62,142.50L396.11,142.50M396.35,377.50L399.92,377.50M396.66,372.87L400.59,372.87M396.54,145.86L400.33,145.86M396.11,142.50L399.41,142.50M399.92,377.50L403.29,377.50M400.59,372.87L404.36,372.87M400.33,145.86L403.94,145.86M399.41,142.50L402.47,142.50M403.29,377.50L406.43,377.50M404.36,372.87L407.94,372.87M403.94,145.86L407.35,145.86M402.47,142.50L405.27,142.50M406.43,377.50L409.30,377.50M407.94,372.87L411.26,372.87M407.35,145.86L410.50,145.86M405.27,142.50L407.79,142.50M409.30,377.50L411.84,377.50M411.26,372.87L414.22,372.87M411.26,148.44L414.22,148.44M410.50,145.86L413.29,145.86M407.79,142.50L410.01,142.50M411.84,377.50L413.99,377.50M414.22,372.87L416.73,372.87M413.29,145.86L415.66,145.86M410.01,142.50L411.88,142.50M413.99,377.50L415.71,377.50M416.73,372.87L418.72,372.87M415.66,145.86L417.54,145.86M411.88,142.50L413.40,142.50M415.71,377.50L417.00,377.50M418.72,372.87L420.20,372.87M417.54,145.86L418.95,145.86M413.40,142.50L414.55,142.50M417.00,377.50L417.89,377.50M418.95,145.86L419.90,145.86M414.55,142.50L415.36,142.50M417.89,377.50L418.40,377.50M421.19,372.87L421.75,372.87M419.90,145.86L420.44,145.86M417.89,143.81L418.40,143.81M415.36,142.50L415.83,142.50M418.40,377.50L418.56,377.50M420.44,145.86L420.61,145.86M415.83,142.50L415.98,142.50M418.56,377.50L418.56,377.50M420.61,375.45L420.61,375.45M420.61,145.86L420.61,145.86M415.98,142.50L415.98,142.50M418.56,377.50L418.40,377.50M420.61,145.86L420.44,145.86M415.98,142.50L415.83,142.50M418.40,377.50L417.89,377.50M421.75,372.87L421.19,372.87M420.44,145.86L419.90,145.86M415.83,142.50L415.36,142.50M417.89,377.50L417.00,377.50M421.19,372.87L420.20,372.87M419.90,145.86L418.95,145.86M415.36,142.50L414.55,142.50M417.00,377.50L415.71,377.50M418.95,375.45L417.54,375.45M418.95,145.86L417.54,145.86M414.55,142.50L413.40,142.50M415.71,377.50L413.99,377.50M417.54,375.45L415.66,375.45M418.72,372.87L416.73,372.87M417.54,145.86L415.66,145.86M413.40,142.50L411.88,142.50M413.99,377.50L411.84,377.50M416.73,372.87L414.22,372.87M415.66,145.86L413.29,145.86M411.88,142.50L410.01,142.50M411.84,377.50L409.30,377.50M414.22,372.87L411.26,372.87M413.29,145.86L410.50,145.86M410.01,142.50L407.79,142.50M409.30,377.50L406.43,377.50M411.26,372.87L407.94,372.87M410.50,145.86L407.35,145.86M407.79,142.50L405.27,142.50M406.43,377.50L403.29,377.50M407.35,145.86L403.94,145.86M405.27,142.50L402.47,142.50M403.29,377.50L399.92,377.50M404.36,372.87L400.59,372.87M403.94,145.86L400.33,145.86M402.47,142.50L399.41,142.50M399.92,377.50L396.35,377.50M400.59,372.87L396.66,372.87M400.33,145.86L396.54,145.86M399.41,142.50L396.11,142.50M396.35,377.50L392.68,377.50M396.66,372.87L392.75,372.87M396.54,145.86L392.72,145.86M396.11,142.50L392.62,142.50M392.68,377.50L215.32,377.50M392.75,372.87L215.25,372.87M392.72,145.86L215.28,145.86M392.62,142.50L215.38,142.50M215.32,377.50L211.65,377.50M215.25,372.87L211.34,372.87M215.28,145.86L211.46,145.86M215.38,142.50L211.89,142.50M211.65,377.50L208.08,377.50M211.34,372.87L207.41,372.87M211.46,145.86L207.67,145.86M211.89,142.50L208.59,142.50M208.08,377.50L204.71,377.50M207.41,372.87L203.64,372.87M207.67,145.86L204.06,145.86M208.59,142.50L205.53,142.50M204.71,377.50L201.57,377.50M203.64,372.87L200.06,372.87M204.06,145.86L200.65,145.86M205.53,142.50L202.73,142.50M201.57,377.50L198.70,377.50M200.06,372.87L196.74,372.87M200.65,145.86L197.50,145.86M202.73,142.50L200.21,142.50M198.70,377.50L196.16,377.50M196.74,372.87L193.78,372.87M196.74,148.44L193.78,148.44M197.50,145.86L194.71,145.86M200.21,142.50L197.99,142.50M196.16,377.50L194.01,377.50M193.78,372.87L191.27,372.87M194.71,145.86L192.34,145.86M197.99,142.50L196.12,142.50M194.01,377.50L192.29,377.50M191.27,372.87L189.28,372.87M192.34,145.86L190.46,145.86M196.12,142.50L194.60,142.50M192.29,377.50L191.00,377.50M189.28,372.87L187.80,372.87M190.46,145.86L189.05,145.86M194.60,142.50L193.45,142.50M191.00,377.50L190.11,377.50M189.05,145.86L188.10,145.86M193.45,142.50L192.64,142.50M190.11,377.50L189.60,377.50M186.81,372.87L186.25,372.87M188.10,145.86L187.56,145.86M190.11,143.81L189.60,143.81M192.64,142.50L192.17,142.50M189.60,377.50L189.44,377.50M187.56,145.86L187.39,145.86M192.17,142.50L192.02,142.50M189.44,377.50L189.44,377.50M187.39,375.45L187.39,375.45M187.39,145.86L187.39,145.86M192.02,142.50L192.02,142.50M189.44,377.50L189.60,377.50M187.39,145.86L187.56,145.86M192.02,142.50L192.17,142.50M189.60,377.50L190.11,377.50M186.25,372.87L186.81,372.87M187.56,145.86L188.10,145.86M192.17,142.50L192.64,142.50M190.11,377.50L191.00,377.50M186.81,372.87L187.80,372.87M188.10,145.86L189.05,145.86M192.64,142.50L193.45,142.50M191.00,377.50L192.29,377.50M189.05,375.45L190.46,375.45M189.05,145.86L190.46,145.86M193.45,142.50L194.60,142.50M192.29,377.50L194.01,377.50M190.46,375.45L192.34,375.45M189.28,372.87L191.27,372.87M190.46,145.86L192.34,145.86M194.60,142.50L196.12,142.50M194.01,377.50L196.16,377.50M191.27,372.87L193.78,372.87M192.34,145.86L194.71,145.86M196.12,142.50L197.99,142.50M196.16,377.50L198.70,377.50M193.78,372.87L196.74,372.87M194.71,145.86L197.50,145.86M197.99,142.50L200.21,142.50M198.70,377.50L201.57,377.50M196.74,372.87L200.06,372.87M197.50,145.86L200.65,145.86M200.21,142.50L202.73,142.50M201.57,377.50L204.71,377.50M200.65,145.86L204.06,145.86M202.73,142.50L205.53,142.50M204.71,377.50L208.08,377.50M203.64,372.87L207.41,372.87M204.06,145.86L207.67,145.86M205.53,142.50L208.59,142.50M208.08,377.50L211.65,377.50M207.41,372.87L211.34,372.87M207.67,145.86L211.46,145.86M208.59,142.50L211.89,142.50M211.65,377.50L215.32,377.50M211.34,372.87L215.25,372.87M211.46,145.86L215.28,145.86M211.89,142.50L215.38,142.50M215.32,377.50L392.68,377.50M215.25,372.87L392.75,372.87M215.28,145.86L392.72,145.86M215.38,142.50L392.62,142.50" fill="none" stroke="#2e3e38" stroke-width=".85"/><text x="48" y="395" font-size="11" fill="#6b736c">MODEL-DERIVED · no hidden-line removal</text><rect x="604" y="115" width="540" height="292" fill="none" stroke="#d6dbd0"/><text x="618" y="140" font-size="15">SIDE / YZ</text><path d="M840.10,377.50L840.26,377.50M836.73,372.87L836.90,372.87M838.05,145.86L838.21,145.86M842.67,142.50L842.83,142.50M840.26,377.50L840.77,377.50M836.90,372.87L837.47,372.87M838.21,145.86L838.76,145.86M842.83,142.50L843.30,142.50M840.77,377.50L841.65,377.50M837.47,372.87L838.46,372.87M838.76,145.86L839.71,145.86M843.30,142.50L844.10,142.50M841.65,377.50L842.95,377.50M838.46,372.87L839.93,372.87M839.71,145.86L841.11,145.86M844.10,142.50L845.26,142.50M842.95,377.50L844.67,377.50M839.93,372.87L841.93,372.87M841.11,145.86L843.00,145.86M845.26,142.50L846.77,142.50M844.67,377.50L846.81,377.50M841.93,372.87L844.43,372.87M841.93,148.44L844.43,148.44M843.00,145.86L845.36,145.86M846.77,142.50L848.64,142.50M846.81,377.50L849.35,377.50M844.43,372.87L847.39,372.87M845.36,145.86L848.16,145.86M848.64,142.50L850.86,142.50M849.35,377.50L852.22,377.50M847.39,372.87L850.71,372.87M848.16,145.86L851.30,145.86M850.86,142.50L853.38,142.50M852.22,377.50L855.36,377.50M850.71,372.87L854.29,372.87M851.30,145.86L854.71,145.86M853.38,142.50L856.19,142.50M855.36,377.50L858.73,377.50M854.71,145.86L858.32,145.86M856.19,142.50L859.24,142.50M858.73,377.50L862.31,377.50M858.06,372.87L861.99,372.87M858.32,145.86L862.12,145.86M858.73,143.81L862.31,143.81M859.24,142.50L862.54,142.50M862.31,377.50L865.97,377.50M862.12,145.86L865.93,145.86M862.54,142.50L866.03,142.50M865.97,377.50L882.03,377.50M865.93,375.45L882.07,375.45M865.93,145.86L882.07,145.86M866.03,142.50L881.97,142.50M882.03,377.50L885.69,377.50M882.07,145.86L885.88,145.86M881.97,142.50L885.46,142.50M885.69,377.50L889.27,377.50M886.01,372.87L889.94,372.87M885.88,145.86L889.68,145.86M885.46,142.50L888.76,142.50M889.27,377.50L892.64,377.50M889.94,372.87L893.71,372.87M889.68,145.86L893.29,145.86M888.76,142.50L891.81,142.50M892.64,377.50L895.78,377.50M893.29,375.45L896.70,375.45M893.29,145.86L896.70,145.86M891.81,142.50L894.62,142.50M895.78,377.50L898.65,377.50M896.70,375.45L899.84,375.45M897.29,372.87L900.61,372.87M896.70,145.86L899.84,145.86M894.62,142.50L897.14,142.50M898.65,377.50L901.19,377.50M900.61,372.87L903.57,372.87M899.84,145.86L902.64,145.86M897.14,142.50L899.36,142.50M901.19,377.50L903.33,377.50M903.57,372.87L906.07,372.87M902.64,145.86L905.00,145.86M899.36,142.50L901.23,142.50M903.33,377.50L905.05,377.50M906.07,372.87L908.07,372.87M905.00,145.86L906.89,145.86M901.23,142.50L902.74,142.50M905.05,377.50L906.35,377.50M906.89,145.86L908.29,145.86M902.74,142.50L903.90,142.50M906.35,377.50L907.23,377.50M909.54,372.87L910.53,372.87M908.29,145.86L909.24,145.86M903.90,142.50L904.70,142.50M907.23,377.50L907.74,377.50M910.53,372.87L911.10,372.87M909.24,145.86L909.79,145.86M904.70,142.50L905.17,142.50M907.74,377.50L907.90,377.50M911.10,372.87L911.27,372.87M909.79,145.86L909.95,145.86M905.17,142.50L905.33,142.50M907.90,377.50L907.90,377.50M911.27,372.87L911.27,372.87M909.95,145.86L909.95,145.86M905.33,142.50L905.33,142.50M907.90,377.50L907.74,377.50M911.27,372.87L911.10,372.87M909.95,145.86L909.79,145.86M905.33,142.50L905.17,142.50M907.74,377.50L907.23,377.50M911.10,372.87L910.53,372.87M909.79,145.86L909.24,145.86M905.17,142.50L904.70,142.50M907.23,377.50L906.35,377.50M910.53,372.87L909.54,372.87M909.24,145.86L908.29,145.86M904.70,142.50L903.90,142.50M906.35,377.50L905.05,377.50M909.54,372.87L908.07,372.87M908.29,145.86L906.89,145.86M903.90,142.50L902.74,142.50M905.05,377.50L903.33,377.50M908.07,372.87L906.07,372.87M906.89,145.86L905.00,145.86M902.74,142.50L901.23,142.50M903.33,377.50L901.19,377.50M906.07,372.87L903.57,372.87M906.07,148.44L903.57,148.44M905.00,145.86L902.64,145.86M901.23,142.50L899.36,142.50M901.19,377.50L898.65,377.50M903.57,372.87L900.61,372.87M902.64,145.86L899.84,145.86M899.36,142.50L897.14,142.50M898.65,377.50L895.78,377.50M900.61,372.87L897.29,372.87M899.84,145.86L896.70,145.86M897.14,142.50L894.62,142.50M895.78,377.50L892.64,377.50M897.29,372.87L893.71,372.87M896.70,145.86L893.29,145.86M894.62,142.50L891.81,142.50M892.64,377.50L889.27,377.50M893.29,145.86L889.68,145.86M891.81,142.50L888.76,142.50M889.27,377.50L885.69,377.50M889.94,372.87L886.01,372.87M889.68,145.86L885.88,145.86M889.27,143.81L885.69,143.81M888.76,142.50L885.46,142.50M885.69,377.50L882.03,377.50M885.88,145.86L882.07,145.86M885.46,142.50L881.97,142.50M882.03,377.50L865.97,377.50M882.07,375.45L865.93,375.45M882.07,145.86L865.93,145.86M881.97,142.50L866.03,142.50M865.97,377.50L862.31,377.50M865.93,145.86L862.12,145.86M866.03,142.50L862.54,142.50M862.31,377.50L858.73,377.50M861.99,372.87L858.06,372.87M862.12,145.86L858.32,145.86M862.54,142.50L859.24,142.50M858.73,377.50L855.36,377.50M858.06,372.87L854.29,372.87M858.32,145.86L854.71,145.86M859.24,142.50L856.19,142.50M855.36,377.50L852.22,377.50M854.71,375.45L851.30,375.45M854.71,145.86L851.30,145.86M856.19,142.50L853.38,142.50M852.22,377.50L849.35,377.50M851.30,375.45L848.16,375.45M850.71,372.87L847.39,372.87M851.30,145.86L848.16,145.86M853.38,142.50L850.86,142.50M849.35,377.50L846.81,377.50M847.39,372.87L844.43,372.87M848.16,145.86L845.36,145.86M850.86,142.50L848.64,142.50M846.81,377.50L844.67,377.50M844.43,372.87L841.93,372.87M845.36,145.86L843.00,145.86M848.64,142.50L846.77,142.50M844.67,377.50L842.95,377.50M841.93,372.87L839.93,372.87M843.00,145.86L841.11,145.86M846.77,142.50L845.26,142.50M842.95,377.50L841.65,377.50M841.11,145.86L839.71,145.86M845.26,142.50L844.10,142.50M841.65,377.50L840.77,377.50M838.46,372.87L837.47,372.87M839.71,145.86L838.76,145.86M844.10,142.50L843.30,142.50M840.77,377.50L840.26,377.50M837.47,372.87L836.90,372.87M838.76,145.86L838.21,145.86M843.30,142.50L842.83,142.50M840.26,377.50L840.10,377.50M836.90,372.87L836.73,372.87M838.21,145.86L838.05,145.86M842.83,142.50L842.67,142.50M840.10,377.50L840.10,377.50M836.73,372.87L836.73,372.87M838.05,145.86L838.05,145.86M842.67,142.50L842.67,142.50" fill="none" stroke="#2e3e38" stroke-width=".85"/><text x="618" y="395" font-size="11" fill="#6b736c">MODEL-DERIVED · no hidden-line removal</text><rect x="34" y="433" width="540" height="292" fill="none" stroke="#d6dbd0"/><text x="48" y="458" font-size="15">TOP / XY</text><path d="M492.28,649.98L500.07,649.64M492.44,657.12L500.73,656.76M492.38,654.33L500.47,653.98M492.16,644.51L499.56,644.19M500.07,649.64L507.66,648.56M500.73,656.76L509.08,655.57M500.47,653.98L508.52,652.83M499.56,644.19L506.57,643.18M507.66,648.56L514.81,646.68M509.08,655.57L517.09,653.46M508.52,652.83L516.20,650.81M506.57,643.18L513.06,641.48M514.81,646.68L521.48,643.93M517.09,653.46L524.69,650.33M516.20,650.81L523.43,647.83M513.06,641.48L519.01,639.03M521.48,643.93L527.57,640.28M524.69,650.33L531.74,646.10M523.43,647.83L530.11,643.82M519.01,639.03L524.37,635.81M527.57,640.28L532.96,635.72M531.74,646.10L538.02,640.78M531.74,646.10L538.02,640.78M530.11,643.82L536.04,638.80M524.37,635.81L529.07,631.83M532.96,635.72L537.52,630.33M538.02,640.78L543.34,634.50M536.04,638.80L541.07,632.87M529.07,631.83L533.05,627.13M537.52,630.33L541.18,624.24M543.34,634.50L547.57,627.45M541.07,632.87L545.07,626.19M533.05,627.13L536.27,621.77M541.18,624.24L543.92,617.57M547.57,627.45L550.70,619.85M545.07,626.19L548.05,618.95M536.27,621.77L538.72,615.82M543.92,617.57L545.80,610.42M548.05,618.95L550.07,611.28M538.72,615.82L540.43,609.33M545.80,610.42L546.89,602.83M552.81,611.84L554.00,603.49M550.07,611.28L551.22,603.23M545.80,610.42L546.89,602.83M540.43,609.33L541.43,602.32M546.89,602.83L547.23,595.04M551.22,603.23L551.57,595.13M541.43,602.32L541.75,594.92M547.23,595.04L547.23,560.96M551.57,595.13L551.57,560.87M551.57,595.13L551.57,560.87M541.75,594.92L541.75,561.08M547.23,560.96L546.89,553.17M551.57,560.87L551.22,552.77M541.75,561.08L541.43,553.68M546.89,553.17L545.80,545.58M554.00,552.51L552.81,544.16M551.22,552.77L550.07,544.72M541.43,553.68L540.43,546.67M545.80,545.58L543.92,538.43M552.81,544.16L550.70,536.15M550.07,544.72L548.05,537.05M540.43,546.67L538.72,540.18M543.92,538.43L541.18,531.76M548.05,537.05L545.07,529.81M548.05,537.05L545.07,529.81M538.72,540.18L536.27,534.23M541.18,531.76L537.52,525.67M545.07,529.81L541.07,523.13M547.57,528.55L543.34,521.50M545.07,529.81L541.07,523.13M536.27,534.23L533.05,528.87M537.52,525.67L532.96,520.28M543.34,521.50L538.02,515.22M541.07,523.13L536.04,517.20M533.05,528.87L529.07,524.17M532.96,520.28L527.57,515.72M538.02,515.22L531.74,509.90M536.04,517.20L530.11,512.18M529.07,524.17L524.37,520.19M527.57,515.72L521.48,512.07M531.74,509.90L524.69,505.67M530.11,512.18L523.43,508.17M524.37,520.19L519.01,516.97M521.48,512.07L514.81,509.32M523.43,508.17L516.20,505.19M519.01,516.97L513.06,514.52M514.81,509.32L507.66,507.44M517.09,502.54L509.08,500.43M516.20,505.19L508.52,503.17M513.06,514.52L506.57,512.82M507.66,507.44L500.07,506.36M509.08,500.43L500.73,499.24M508.52,503.17L500.47,502.02M506.57,512.82L499.56,511.81M500.07,506.36L492.28,506.02M500.73,499.24L492.44,498.88M500.47,502.02L492.38,501.67M499.56,511.81L492.16,511.49M492.28,506.02L115.72,506.02M492.44,498.88L115.56,498.88M492.38,501.67L115.62,501.67M492.16,511.49L115.84,511.49M115.72,506.02L107.93,506.36M115.56,498.88L107.27,499.24M115.62,501.67L107.53,502.02M115.84,511.49L108.44,511.81M107.93,506.36L100.34,507.44M107.27,499.24L98.92,500.43M107.53,502.02L99.48,503.17M108.44,511.81L101.43,512.82M100.34,507.44L93.19,509.32M98.92,500.43L90.91,502.54M99.48,503.17L91.80,505.19M101.43,512.82L94.94,514.52M93.19,509.32L86.52,512.07M90.91,502.54L83.31,505.67M91.80,505.19L84.57,508.17M94.94,514.52L88.99,516.97M86.52,512.07L80.43,515.72M83.31,505.67L76.26,509.90M84.57,508.17L77.89,512.18M88.99,516.97L83.63,520.19M80.43,515.72L75.04,520.28M76.26,509.90L69.98,515.22M76.26,509.90L69.98,515.22M77.89,512.18L71.96,517.20M83.63,520.19L78.93,524.17M75.04,520.28L70.48,525.67M69.98,515.22L64.66,521.50M71.96,517.20L66.93,523.13M78.93,524.17L74.95,528.87M70.48,525.67L66.82,531.76M64.66,521.50L60.43,528.55M66.93,523.13L62.93,529.81M74.95,528.87L71.73,534.23M66.82,531.76L64.08,538.43M60.43,528.55L57.30,536.15M62.93,529.81L59.95,537.05M71.73,534.23L69.28,540.18M64.08,538.43L62.20,545.58M59.95,537.05L57.93,544.72M69.28,540.18L67.57,546.67M62.20,545.58L61.11,553.17M55.19,544.16L54.00,552.51M57.93,544.72L56.78,552.77M62.20,545.58L61.11,553.17M67.57,546.67L66.57,553.68M61.11,553.17L60.77,560.96M56.78,552.77L56.43,560.87M66.57,553.68L66.25,561.08M60.77,560.96L60.77,595.04M56.43,560.87L56.43,595.13M56.43,560.87L56.43,595.13M66.25,561.08L66.25,594.92M60.77,595.04L61.11,602.83M56.43,595.13L56.78,603.23M66.25,594.92L66.57,602.32M61.11,602.83L62.20,610.42M54.00,603.49L55.19,611.84M56.78,603.23L57.93,611.28M66.57,602.32L67.57,609.33M62.20,610.42L64.08,617.57M55.19,611.84L57.30,619.85M57.93,611.28L59.95,618.95M67.57,609.33L69.28,615.82M64.08,617.57L66.82,624.24M59.95,618.95L62.93,626.19M59.95,618.95L62.93,626.19M69.28,615.82L71.73,621.77M66.82,624.24L70.48,630.33M62.93,626.19L66.93,632.87M60.43,627.45L64.66,634.50M62.93,626.19L66.93,632.87M71.73,621.77L74.95,627.13M70.48,630.33L75.04,635.72M64.66,634.50L69.98,640.78M66.93,632.87L71.96,638.80M74.95,627.13L78.93,631.83M75.04,635.72L80.43,640.28M69.98,640.78L76.26,646.10M71.96,638.80L77.89,643.82M78.93,631.83L83.63,635.81M80.43,640.28L86.52,643.93M76.26,646.10L83.31,650.33M77.89,643.82L84.57,647.83M83.63,635.81L88.99,639.03M86.52,643.93L93.19,646.68M84.57,647.83L91.80,650.81M88.99,639.03L94.94,641.48M93.19,646.68L100.34,648.56M90.91,653.46L98.92,655.57M91.80,650.81L99.48,652.83M94.94,641.48L101.43,643.18M100.34,648.56L107.93,649.64M98.92,655.57L107.27,656.76M99.48,652.83L107.53,653.98M101.43,643.18L108.44,644.19M107.93,649.64L115.72,649.98M107.27,656.76L115.56,657.12M107.53,653.98L115.62,654.33M108.44,644.19L115.84,644.51M115.72,649.98L492.28,649.98M115.56,657.12L492.44,657.12M115.62,654.33L492.38,654.33M115.84,644.51L492.16,644.51" fill="none" stroke="#2e3e38" stroke-width=".85"/><text x="48" y="713" font-size="11" fill="#6b736c">MODEL-DERIVED · no hidden-line removal</text><rect x="604" y="433" width="540" height="292" fill="none" stroke="#d6dbd0"/><text x="618" y="458" font-size="15">AXONOMETRIC</text><path d="M941.76,669.89L943.70,671.11M943.66,665.89L945.72,667.19M942.91,521.41L944.93,522.68M940.30,520.71L942.14,521.87M943.70,671.11L945.39,672.42M945.72,667.19L947.58,668.62M944.93,522.68L946.73,524.06M942.14,521.87L943.71,523.07M945.39,672.42L946.76,673.77M947.58,668.62L949.12,670.14M946.73,524.06L948.20,525.52M943.71,523.07L944.95,524.30M946.76,673.77L947.78,675.19M949.12,670.14L950.28,671.76M948.20,525.52L949.31,527.05M944.95,524.30L945.86,525.57M947.78,675.19L948.42,676.65M950.28,671.76L951.02,673.45M949.31,527.05L950.00,528.66M945.86,525.57L946.42,526.86M948.42,676.65L948.63,678.15M951.02,673.45L951.27,675.20M951.02,530.21L951.27,531.95M950.00,528.66L950.24,530.31M946.42,526.86L946.61,528.16M948.63,678.15L948.42,679.64M951.27,675.20L951.02,676.94M950.24,530.31L950.00,531.95M946.61,528.16L946.42,529.47M948.42,679.64L947.78,681.11M951.02,676.94L950.28,678.64M950.00,531.95L949.31,533.56M946.42,529.47L945.86,530.75M947.78,681.11L946.76,682.52M950.28,678.64L949.12,680.25M949.31,533.56L948.20,535.09M945.86,530.75L944.95,532.02M946.76,682.52L945.39,683.88M948.20,535.09L946.73,536.55M944.95,532.02L943.71,533.25M945.39,683.88L943.70,685.19M947.58,681.77L945.72,683.20M946.73,536.55L944.93,537.93M945.39,534.73L943.70,536.04M943.71,533.25L942.14,534.45M943.70,685.19L941.76,686.41M944.93,537.93L942.91,539.20M942.14,534.45L940.30,535.61M941.76,686.41L932.89,691.53M942.91,685.74L933.99,690.89M942.91,539.20L933.99,544.35M940.30,535.61L931.49,540.70M932.89,691.53L930.77,692.65M933.99,544.35L931.79,545.52M931.49,540.70L929.48,541.76M930.77,692.65L928.51,693.63M932.45,690.87L929.97,691.94M931.79,545.52L929.40,546.56M929.48,541.76L927.39,542.67M928.51,693.63L926.16,694.42M929.97,691.94L927.33,692.83M929.40,546.56L926.87,547.41M927.39,542.67L925.26,543.39M926.16,694.42L923.71,695.01M926.87,693.94L924.21,694.58M926.87,547.41L924.21,548.04M925.26,543.39L923.07,543.91M923.71,695.01L921.17,695.38M924.21,694.58L921.43,694.98M924.54,693.50L921.60,693.92M924.21,548.04L921.43,548.45M923.07,543.91L920.84,544.23M921.17,695.38L918.58,695.50M921.60,693.92L918.58,694.07M921.43,548.45L918.58,548.58M920.84,544.23L918.58,544.34M918.58,695.50L915.99,695.38M918.58,694.07L915.56,693.92M918.58,548.58L915.73,548.45M918.58,544.34L916.32,544.23M915.99,695.38L913.45,695.01M915.56,693.92L912.62,693.50M915.73,548.45L912.95,548.04M916.32,544.23L914.09,543.91M913.45,695.01L911.00,694.42M912.95,548.04L910.29,547.41M914.09,543.91L911.90,543.39M911.00,694.42L908.65,693.63M909.83,692.83L907.20,691.94M910.29,547.41L907.77,546.56M911.90,543.39L909.77,542.67M908.65,693.63L906.39,692.65M907.20,691.94L904.71,690.87M907.77,546.56L905.37,545.52M909.77,542.67L907.68,541.76M906.39,692.65L904.28,691.53M904.71,690.87L902.46,689.67M905.37,545.52L903.17,544.35M907.68,541.76L905.67,540.70M904.28,691.53L806.24,634.93M902.46,689.67L804.34,633.03M903.17,544.35L805.09,487.73M905.67,540.70L807.70,484.14M806.24,634.93L804.30,633.71M804.34,633.03L802.28,631.73M805.09,487.73L803.07,486.46M807.70,484.14L805.86,482.98M804.30,633.71L802.61,632.40M802.28,631.73L800.42,630.29M803.07,486.46L801.27,485.07M805.86,482.98L804.29,481.77M802.61,632.40L801.24,631.05M800.42,630.29L798.88,628.77M801.27,485.07L799.80,483.62M804.29,481.77L803.05,480.54M801.24,631.05L800.22,629.63M798.88,628.77L797.72,627.16M799.80,483.62L798.69,482.08M803.05,480.54L802.14,479.28M800.22,629.63L799.58,628.17M797.72,627.16L796.98,625.46M798.69,482.08L798.00,480.47M802.14,479.28L801.58,477.99M799.58,628.17L799.37,626.67M796.98,625.46L796.73,623.72M796.98,482.22L796.73,480.47M798.00,480.47L797.76,478.83M801.58,477.99L801.39,476.68M799.37,626.67L799.58,625.18M796.73,623.72L796.98,621.97M797.76,478.83L798.00,477.18M801.39,476.68L801.58,475.38M799.58,625.18L800.22,623.71M796.98,621.97L797.72,620.28M798.00,477.18L798.69,475.58M801.58,475.38L802.14,474.09M800.22,623.71L801.24,622.30M797.72,620.28L798.88,618.67M798.69,475.58L799.80,474.04M802.14,474.09L803.05,472.83M801.24,622.30L802.61,620.94M799.80,474.04L801.27,472.58M803.05,472.83L804.29,471.59M802.61,620.94L804.30,619.63M800.42,617.15L802.28,615.71M801.27,472.58L803.07,471.20M802.61,471.79L804.30,470.48M804.29,471.59L805.86,470.39M804.30,619.63L806.24,618.41M803.07,471.20L805.09,469.93M805.86,470.39L807.70,469.23M806.24,618.41L815.11,613.29M805.09,616.47L814.01,611.32M805.09,469.93L814.01,464.78M807.70,469.23L816.51,464.14M815.11,613.29L817.23,612.17M814.01,464.78L816.21,463.62M816.51,464.14L818.52,463.08M817.23,612.17L819.49,611.19M815.55,608.05L818.03,606.97M816.21,463.62L818.60,462.58M818.52,463.08L820.61,462.18M819.49,611.19L821.84,610.40M818.03,606.97L820.67,606.09M818.60,462.58L821.13,461.73M820.61,462.18L822.74,461.46M821.84,610.40L824.29,609.81M821.13,608.27L823.79,607.63M821.13,461.73L823.79,461.09M822.74,461.46L824.93,460.93M824.29,609.81L826.83,609.45M823.79,607.63L826.57,607.22M823.46,605.42L826.40,604.99M823.79,461.09L826.57,460.69M824.93,460.93L827.16,460.61M826.83,609.45L829.42,609.32M826.40,604.99L829.42,604.85M826.57,460.69L829.42,460.55M827.16,460.61L829.42,460.50M829.42,609.32L832.01,609.45M829.42,604.85L832.44,604.99M829.42,460.55L832.27,460.69M829.42,460.50L831.68,460.61M832.01,609.45L834.55,609.81M832.44,604.99L835.38,605.42M832.27,460.69L835.05,461.09M831.68,460.61L833.91,460.93M834.55,609.81L837.00,610.40M835.05,461.09L837.71,461.73M833.91,460.93L836.10,461.46M837.00,610.40L839.35,611.19M838.17,606.09L840.80,606.97M837.71,461.73L840.23,462.58M836.10,461.46L838.23,462.18M839.35,611.19L841.61,612.17M840.80,606.97L843.29,608.05M840.23,462.58L842.63,463.62M838.23,462.18L840.32,463.08M841.61,612.17L843.72,613.29M843.29,608.05L845.54,609.24M842.63,463.62L844.83,464.78M840.32,463.08L842.33,464.14M843.72,613.29L941.76,669.89M845.54,609.24L943.66,665.89M844.83,464.78L942.91,521.41M842.33,464.14L940.30,520.71" fill="none" stroke="#2e3e38" stroke-width=".85"/><text x="618" y="713" font-size="11" fill="#6b736c">MODEL-DERIVED · no hidden-line removal</text><text x="34" y="790" font-size="16">Factory | sage-lounge-fabric</text><text x="34" y="823" font-size="13">現有模型導出的形體頁；獨立參考、接口、回裝與品質尚須逐項驗收。</text><text x="34" y="854" font-size="12">GT01 PARTS WAREHOUSE · PROVISIONAL · F-CHAIR-01 / F-CHAIR-03 / F-CHAIR-05</text></g></svg>