<svg xmlns="http://www.w3.org/2000/svg" viewBox="0 0 1200 880"><rect width="1200" height="880" fill="#fffef9"/><g font-family="Segoe UI,Microsoft JhengHei,sans-serif" fill="#243b31"><text x="34" y="42" font-size="22">FC-bd66d588a28552 · exhaust weather cap</text><text x="34" y="76" font-size="14">1000 × 130 × 1000 mm — geometry extent, not a manufacturing tolerance</text><rect x="34" y="115" width="540" height="292" fill="none" stroke="#d6dbd0"/><text x="48" y="140" font-size="15">FRONT / XZ</text><path d="M362.75,158.24L362.75,158.24M405.76,201.25L405.76,201.25M421.50,260.00L421.50,260.00M405.76,318.75L405.76,318.75M362.75,361.76L362.75,361.76M304.00,377.50L304.00,377.50M245.25,361.76L245.25,361.76M202.24,318.75L202.24,318.75M186.50,260.00L186.50,260.00M202.24,201.25L202.24,201.25M245.25,158.24L245.25,158.24M304.00,142.50L304.00,142.50M304.00,142.50L362.75,158.24M362.75,158.24L405.76,201.25M405.76,201.25L421.50,260.00M421.50,260.00L405.76,318.75M405.76,318.75L362.75,361.76M362.75,361.76L304.00,377.50M304.00,377.50L245.25,361.76M245.25,361.76L202.24,318.75M202.24,318.75L186.50,260.00M186.50,260.00L202.24,201.25M202.24,201.25L245.25,158.24M245.25,158.24L304.00,142.50M362.75,158.24L304.00,142.50M405.76,201.25L362.75,158.24M421.50,260.00L405.76,201.25M405.76,318.75L421.50,260.00M362.75,361.76L405.76,318.75M304.00,377.50L362.75,361.76M245.25,361.76L304.00,377.50M202.24,318.75L245.25,361.76M186.50,260.00L202.24,318.75M202.24,201.25L186.50,260.00M245.25,158.24L202.24,201.25M304.00,142.50L245.25,158.24" fill="none" stroke="#2e3e38" stroke-width=".85"/><text x="48" y="395" font-size="11" fill="#6b736c">MODEL-DERIVED · no hidden-line removal</text><rect x="604" y="115" width="540" height="292" fill="none" stroke="#d6dbd0"/><text x="618" y="140" font-size="15">SIDE / YZ</text><path d="M889.27,158.24L858.73,158.24M889.27,201.25L858.73,201.25M889.27,260.00L858.73,260.00M889.27,318.75L858.73,318.75M889.27,361.76L858.73,361.76M889.27,377.50L858.73,377.50M889.27,361.76L858.73,361.76M889.27,318.75L858.73,318.75M889.27,260.00L858.73,260.00M889.27,201.25L858.73,201.25M889.27,158.24L858.73,158.24M858.73,142.50L889.27,142.50M889.27,142.50L889.27,158.24M889.27,158.24L889.27,201.25M889.27,201.25L889.27,260.00M889.27,260.00L889.27,318.75M889.27,318.75L889.27,361.76M889.27,361.76L889.27,377.50M889.27,377.50L889.27,361.76M889.27,361.76L889.27,318.75M889.27,318.75L889.27,260.00M889.27,260.00L889.27,201.25M889.27,201.25L889.27,158.24M889.27,158.24L889.27,142.50M858.73,158.24L858.73,142.50M858.73,201.25L858.73,158.24M858.73,260.00L858.73,201.25M858.73,318.75L858.73,260.00M858.73,361.76L858.73,318.75M858.73,377.50L858.73,361.76M858.73,361.76L858.73,377.50M858.73,318.75L858.73,361.76M858.73,260.00L858.73,318.75M858.73,201.25L858.73,260.00M858.73,158.24L858.73,201.25M858.73,142.50L858.73,158.24" fill="none" stroke="#2e3e38" stroke-width=".85"/><text x="618" y="395" font-size="11" fill="#6b736c">MODEL-DERIVED · no hidden-line removal</text><rect x="34" y="433" width="540" height="292" fill="none" stroke="#d6dbd0"/><text x="48" y="458" font-size="15">TOP / XY</text><path d="M429.00,545.50L429.00,610.50M520.51,545.50L520.51,610.50M554.00,545.50L554.00,610.50M520.51,545.50L520.51,610.50M429.00,545.50L429.00,610.50M304.00,545.50L304.00,610.50M179.00,545.50L179.00,610.50M87.49,545.50L87.49,610.50M54.00,545.50L54.00,610.50M87.49,545.50L87.49,610.50M179.00,545.50L179.00,610.50M304.00,610.50L304.00,545.50M304.00,545.50L429.00,545.50M429.00,545.50L520.51,545.50M520.51,545.50L554.00,545.50M554.00,545.50L520.51,545.50M520.51,545.50L429.00,545.50M429.00,545.50L304.00,545.50M304.00,545.50L179.00,545.50M179.00,545.50L87.49,545.50M87.49,545.50L54.00,545.50M54.00,545.50L87.49,545.50M87.49,545.50L179.00,545.50M179.00,545.50L304.00,545.50M429.00,610.50L304.00,610.50M520.51,610.50L429.00,610.50M554.00,610.50L520.51,610.50M520.51,610.50L554.00,610.50M429.00,610.50L520.51,610.50M304.00,610.50L429.00,610.50M179.00,610.50L304.00,610.50M87.49,610.50L179.00,610.50M54.00,610.50L87.49,610.50M87.49,610.50L54.00,610.50M179.00,610.50L87.49,610.50M304.00,610.50L179.00,610.50" fill="none" stroke="#2e3e38" stroke-width=".85"/><text x="48" y="713" font-size="11" fill="#6b736c">MODEL-DERIVED · no hidden-line removal</text><rect x="604" y="433" width="540" height="292" fill="none" stroke="#d6dbd0"/><text x="618" y="458" font-size="15">AXONOMETRIC</text><path d="M905.88,523.18L928.28,510.24M937.42,577.80L959.82,564.87M948.96,634.21L971.36,621.28M937.42,677.29L959.82,664.36M905.88,695.50L928.28,682.57M862.80,683.96L885.20,671.02M819.72,645.76L842.12,632.82M788.18,591.13L810.58,578.20M776.64,534.72L799.04,521.79M788.18,491.64L810.58,478.71M819.72,473.43L842.12,460.50M885.20,472.04L862.80,484.98M862.80,484.98L905.88,523.18M905.88,523.18L937.42,577.80M937.42,577.80L948.96,634.21M948.96,634.21L937.42,677.29M937.42,677.29L905.88,695.50M905.88,695.50L862.80,683.96M862.80,683.96L819.72,645.76M819.72,645.76L788.18,591.13M788.18,591.13L776.64,534.72M776.64,534.72L788.18,491.64M788.18,491.64L819.72,473.43M819.72,473.43L862.80,484.98M928.28,510.24L885.20,472.04M959.82,564.87L928.28,510.24M971.36,621.28L959.82,564.87M959.82,664.36L971.36,621.28M928.28,682.57L959.82,664.36M885.20,671.02L928.28,682.57M842.12,632.82L885.20,671.02M810.58,578.20L842.12,632.82M799.04,521.79L810.58,578.20M810.58,478.71L799.04,521.79M842.12,460.50L810.58,478.71M885.20,472.04L842.12,460.50" fill="none" stroke="#2e3e38" stroke-width=".85"/><text x="618" y="713" font-size="11" fill="#6b736c">MODEL-DERIVED · no hidden-line removal</text><text x="34" y="790" font-size="16">Factory | galvanized-steel</text><text x="34" y="823" font-size="13">現有模型導出的形體頁；獨立參考、接口、回裝與品質尚須逐項驗收。</text><text x="34" y="854" font-size="12">GT01 PARTS WAREHOUSE · PROVISIONAL · F-ROOF-02</text></g></svg>