<svg xmlns="http://www.w3.org/2000/svg" viewBox="0 0 1200 880"><rect width="1200" height="880" fill="#fffef9"/><g font-family="Segoe UI,Microsoft JhengHei,sans-serif" fill="#243b31"><text x="34" y="42" font-size="22">FC-deaf35587fa67d · Factory | warm-white-powdercoat</text><text x="34" y="76" font-size="14">110 × 6000 × 170 mm — geometry extent, not a manufacturing tolerance</text><rect x="34" y="115" width="540" height="292" fill="none" stroke="#d6dbd0"/><text x="48" y="140" font-size="15">FRONT / XZ</text><path d="M379.22,145.26L380.03,145.26M380.03,145.26L379.22,143.31M380.03,145.26L380.03,145.26M380.03,260.00L380.03,145.26M380.03,374.74L380.03,260.00M380.03,374.74L380.03,374.74M380.03,145.26L380.03,145.26M380.03,374.74L380.03,374.74M380.03,260.00L380.03,145.26M380.03,374.74L380.03,260.00M380.03,374.74L379.22,374.74M379.22,376.69L380.03,374.74M228.78,374.74L227.97,374.74M227.97,374.74L228.78,376.69M227.97,374.74L227.97,374.74M227.97,260.00L227.97,374.74M227.97,145.26L227.97,260.00M227.97,145.26L227.97,145.26M227.97,374.74L227.97,374.74M227.97,145.26L227.97,145.26M227.97,260.00L227.97,374.74M227.97,145.26L227.97,260.00M227.97,145.26L228.78,145.26M228.78,143.31L227.97,145.26M229.14,376.33L228.78,374.74M230.74,376.69L230.74,374.74M379.22,374.74L378.86,376.33M228.78,374.74L228.78,260.00M230.74,374.74L228.78,374.74M230.74,374.74L230.74,260.00M304.00,374.74L230.74,374.74M377.26,374.74L304.00,374.74M377.26,374.74L377.26,260.00M379.22,260.00L379.22,374.74M228.78,260.00L228.78,145.26M230.74,260.00L230.74,145.26M377.26,260.00L377.26,145.26M379.22,145.26L379.22,260.00M228.78,145.26L229.14,143.67M304.00,145.26L230.74,145.26M377.26,145.26L304.00,145.26M377.26,145.26L377.26,143.31M379.22,145.26L377.26,145.26M378.86,143.67L379.22,145.26M229.14,143.67L228.78,145.26M230.74,143.31L230.74,145.26M379.22,145.26L378.86,143.67M228.78,145.26L228.78,260.00M230.74,145.26L228.78,145.26M230.74,145.26L230.74,260.00M304.00,145.26L230.74,145.26M377.26,145.26L304.00,145.26M377.26,145.26L377.26,260.00M379.22,260.00L379.22,145.26M228.78,260.00L228.78,374.74M230.74,260.00L230.74,374.74M377.26,260.00L377.26,374.74M379.22,374.74L379.22,260.00M228.78,374.74L229.14,376.33M304.00,374.74L230.74,374.74M377.26,374.74L304.00,374.74M377.26,374.74L377.26,376.69M379.22,374.74L377.26,374.74M378.86,376.33L379.22,374.74M229.14,143.67L228.78,143.31M230.74,143.31L229.14,143.67M230.74,143.31L230.74,142.50M304.00,143.31L230.74,143.31M377.26,143.31L304.00,143.31M378.86,143.67L377.26,143.31M379.22,143.31L378.86,143.67M228.78,143.31L228.78,143.31M230.74,142.50L228.78,143.31M230.74,142.50L230.74,142.50M304.00,142.50L230.74,142.50M377.26,142.50L304.00,142.50M377.26,142.50L377.26,142.50M379.22,143.31L379.22,143.31M228.78,143.31L228.78,143.31M230.74,142.50L230.74,142.50M377.26,142.50L377.26,142.50M379.22,143.31L379.22,143.31M228.78,143.31L229.14,143.67M229.14,143.67L230.74,143.31M304.00,142.50L230.74,142.50M230.74,143.31L304.00,143.31M377.26,142.50L304.00,142.50M304.00,143.31L377.26,143.31M377.26,142.50L377.26,143.31M379.22,143.31L377.26,142.50M377.26,143.31L378.86,143.67M378.86,143.67L379.22,143.31M378.86,376.33L379.22,376.69M377.26,376.69L378.86,376.33M377.26,376.69L377.26,377.50M304.00,376.69L377.26,376.69M230.74,376.69L304.00,376.69M229.14,376.33L230.74,376.69M228.78,376.69L229.14,376.33M379.22,376.69L379.22,376.69M377.26,377.50L379.22,376.69M377.26,377.50L377.26,377.50M304.00,377.50L377.26,377.50M230.74,377.50L304.00,377.50M230.74,377.50L230.74,377.50M228.78,376.69L228.78,376.69M379.22,376.69L379.22,376.69M377.26,377.50L377.26,377.50M230.74,377.50L230.74,377.50M228.78,376.69L228.78,376.69M379.22,376.69L378.86,376.33M378.86,376.33L377.26,376.69M304.00,377.50L377.26,377.50M377.26,376.69L304.00,376.69M230.74,377.50L304.00,377.50M304.00,376.69L230.74,376.69M230.74,377.50L230.74,376.69M228.78,376.69L230.74,377.50M230.74,376.69L229.14,376.33M229.14,376.33L228.78,376.69" fill="none" stroke="#2e3e38" stroke-width=".85"/><text x="48" y="395" font-size="11" fill="#6b736c">MODEL-DERIVED · no hidden-line removal</text><rect x="604" y="115" width="540" height="292" fill="none" stroke="#d6dbd0"/><text x="618" y="140" font-size="15">SIDE / YZ</text><path d="M1123.95,253.08L1123.83,253.08M1123.83,253.08L1123.83,252.97M1123.83,253.08L874.00,253.08M1123.83,260.00L1123.83,253.08M1123.83,266.92L1123.83,260.00M1123.83,266.92L874.00,266.92M874.00,253.08L624.17,253.08M874.00,266.92L624.17,266.92M624.17,260.00L624.17,253.08M624.17,266.92L624.17,260.00M624.17,266.92L624.05,266.92M624.17,267.03L624.17,266.92M1123.95,266.92L1123.83,266.92M1123.83,266.92L1123.83,267.03M1123.83,266.92L874.00,266.92M1123.83,260.00L1123.83,266.92M1123.83,253.08L1123.83,260.00M1123.83,253.08L874.00,253.08M874.00,266.92L624.17,266.92M874.00,253.08L624.17,253.08M624.17,260.00L624.17,266.92M624.17,253.08L624.17,260.00M624.17,253.08L624.05,253.08M624.17,252.97L624.17,253.08M1123.93,267.01L1123.95,266.92M1123.95,267.03L1124.00,266.92M1123.95,266.92L1123.93,267.01M1123.95,266.92L1123.95,260.00M1124.00,266.92L1123.95,266.92M1124.00,266.92L1124.00,260.00M1124.00,266.92L1124.00,266.92M1124.00,266.92L1124.00,266.92M1124.00,266.92L1124.00,260.00M1123.95,260.00L1123.95,266.92M1123.95,260.00L1123.95,253.08M1124.00,260.00L1124.00,253.08M1124.00,260.00L1124.00,253.08M1123.95,253.08L1123.95,260.00M1123.95,253.08L1123.93,252.99M1124.00,253.08L1124.00,253.08M1124.00,253.08L1124.00,253.08M1124.00,253.08L1123.95,252.97M1123.95,253.08L1124.00,253.08M1123.93,252.99L1123.95,253.08M624.07,252.99L624.05,253.08M624.05,252.97L624.00,253.08M624.05,253.08L624.07,252.99M624.05,253.08L624.05,260.00M624.00,253.08L624.05,253.08M624.00,253.08L624.00,260.00M624.00,253.08L624.00,253.08M624.00,253.08L624.00,253.08M624.00,253.08L624.00,260.00M624.05,260.00L624.05,253.08M624.05,260.00L624.05,266.92M624.00,260.00L624.00,266.92M624.00,260.00L624.00,266.92M624.05,266.92L624.05,260.00M624.05,266.92L624.07,267.01M624.00,266.92L624.00,266.92M624.00,266.92L624.00,266.92M624.00,266.92L624.05,267.03M624.05,266.92L624.00,266.92M624.07,267.01L624.05,266.92M1123.93,252.99L1123.83,252.97M1123.95,252.97L1123.93,252.99M1123.95,252.97L1123.83,252.92M1123.95,252.97L1123.95,252.97M1123.95,252.97L1123.95,252.97M1123.93,252.99L1123.95,252.97M1123.83,252.97L1123.93,252.99M1123.83,252.97L874.00,252.97M1123.83,252.92L1123.83,252.97M1123.83,252.92L874.00,252.92M1123.83,252.92L1123.83,252.92M1123.83,252.92L1123.83,252.92M1123.83,252.92L874.00,252.92M874.00,252.97L1123.83,252.97M874.00,252.97L624.17,252.97M874.00,252.92L624.17,252.92M874.00,252.92L624.17,252.92M624.17,252.97L874.00,252.97M624.17,252.97L624.07,252.99M624.07,252.99L624.05,252.97M624.17,252.92L624.17,252.92M624.05,252.97L624.05,252.97M624.17,252.92L624.17,252.92M624.05,252.97L624.05,252.97M624.17,252.92L624.05,252.97M624.17,252.97L624.17,252.92M624.05,252.97L624.07,252.99M624.07,252.99L624.17,252.97M1123.93,267.01L1123.83,267.03M1123.95,267.03L1123.93,267.01M1123.95,267.03L1123.83,267.08M1123.95,267.03L1123.95,267.03M1123.95,267.03L1123.95,267.03M1123.93,267.01L1123.95,267.03M1123.83,267.03L1123.93,267.01M1123.83,267.03L874.00,267.03M1123.83,267.08L1123.83,267.03M1123.83,267.08L874.00,267.08M1123.83,267.08L1123.83,267.08M1123.83,267.08L1123.83,267.08M1123.83,267.08L874.00,267.08M874.00,267.03L1123.83,267.03M874.00,267.03L624.17,267.03M874.00,267.08L624.17,267.08M874.00,267.08L624.17,267.08M624.17,267.03L874.00,267.03M624.17,267.03L624.07,267.01M624.07,267.01L624.05,267.03M624.17,267.08L624.17,267.08M624.05,267.03L624.05,267.03M624.17,267.08L624.17,267.08M624.05,267.03L624.05,267.03M624.17,267.08L624.05,267.03M624.17,267.03L624.17,267.08M624.05,267.03L624.07,267.01M624.07,267.01L624.17,267.03" fill="none" stroke="#2e3e38" stroke-width=".85"/><text x="618" y="395" font-size="11" fill="#6b736c">MODEL-DERIVED · no hidden-line removal</text><rect x="34" y="433" width="540" height="292" fill="none" stroke="#d6dbd0"/><text x="48" y="458" font-size="15">TOP / XY</text><path d="M306.13,460.52L306.15,460.58M306.15,460.58L306.13,460.58M306.15,460.58L306.15,578.00M306.15,460.58L306.15,460.58M306.15,460.58L306.15,460.58M306.15,460.58L306.15,578.00M306.15,578.00L306.15,695.42M306.15,578.00L306.15,695.42M306.15,695.42L306.15,695.42M306.15,695.42L306.15,695.42M306.15,695.42L306.13,695.48M306.13,695.42L306.15,695.42M301.87,460.52L301.85,460.58M301.85,460.58L301.87,460.58M301.85,460.58L301.85,578.00M301.85,460.58L301.85,460.58M301.85,460.58L301.85,460.58M301.85,460.58L301.85,578.00M301.85,578.00L301.85,695.42M301.85,578.00L301.85,695.42M301.85,695.42L301.85,695.42M301.85,695.42L301.85,695.42M301.85,695.42L301.87,695.48M301.87,695.42L301.85,695.42M301.88,460.53L301.87,460.52M301.92,460.52L301.92,460.50M306.13,460.52L306.12,460.53M301.87,460.52L301.87,460.52M301.92,460.50L301.87,460.52M301.92,460.50L301.92,460.50M304.00,460.50L301.92,460.50M306.08,460.50L304.00,460.50M306.08,460.50L306.08,460.50M306.13,460.52L306.13,460.52M301.87,460.52L301.87,460.52M301.92,460.50L301.92,460.50M306.08,460.50L306.08,460.50M306.13,460.52L306.13,460.52M301.87,460.52L301.88,460.53M304.00,460.50L301.92,460.50M306.08,460.50L304.00,460.50M306.08,460.50L306.08,460.52M306.13,460.52L306.08,460.50M306.12,460.53L306.13,460.52M301.88,695.47L301.87,695.48M301.92,695.48L301.92,695.50M306.13,695.48L306.12,695.47M301.87,695.48L301.87,695.48M301.92,695.50L301.87,695.48M301.92,695.50L301.92,695.50M304.00,695.50L301.92,695.50M306.08,695.50L304.00,695.50M306.08,695.50L306.08,695.50M306.13,695.48L306.13,695.48M301.87,695.48L301.87,695.48M301.92,695.50L301.92,695.50M306.08,695.50L306.08,695.50M306.13,695.48L306.13,695.48M301.87,695.48L301.88,695.47M304.00,695.50L301.92,695.50M306.08,695.50L304.00,695.50M306.08,695.50L306.08,695.48M306.13,695.48L306.08,695.50M306.12,695.47L306.13,695.48M301.88,460.53L301.87,460.58M301.92,460.52L301.88,460.53M301.92,460.52L301.92,460.58M304.00,460.52L301.92,460.52M306.08,460.52L304.00,460.52M306.12,460.53L306.08,460.52M306.13,460.58L306.12,460.53M301.87,460.58L301.87,578.00M301.92,460.58L301.87,460.58M301.92,460.58L301.92,578.00M304.00,460.58L301.92,460.58M306.08,460.58L304.00,460.58M306.08,460.58L306.08,578.00M306.13,578.00L306.13,460.58M301.87,578.00L301.87,695.42M301.92,578.00L301.92,695.42M306.08,578.00L306.08,695.42M306.13,695.42L306.13,578.00M301.87,695.42L301.88,695.47M301.88,695.47L301.92,695.48M304.00,695.42L301.92,695.42M301.92,695.48L304.00,695.48M306.08,695.42L304.00,695.42M304.00,695.48L306.08,695.48M306.08,695.42L306.08,695.48M306.13,695.42L306.08,695.42M306.08,695.48L306.12,695.47M306.12,695.47L306.13,695.42M306.12,460.53L306.13,460.58M306.08,460.52L306.12,460.53M306.08,460.52L306.08,460.58M304.00,460.52L306.08,460.52M301.92,460.52L304.00,460.52M301.88,460.53L301.92,460.52M301.87,460.58L301.88,460.53M306.13,460.58L306.13,578.00M306.08,460.58L306.13,460.58M306.08,460.58L306.08,578.00M304.00,460.58L306.08,460.58M301.92,460.58L304.00,460.58M301.92,460.58L301.92,578.00M301.87,578.00L301.87,460.58M306.13,578.00L306.13,695.42M306.08,578.00L306.08,695.42M301.92,578.00L301.92,695.42M301.87,695.42L301.87,578.00M306.13,695.42L306.12,695.47M306.12,695.47L306.08,695.48M304.00,695.42L306.08,695.42M306.08,695.48L304.00,695.48M301.92,695.42L304.00,695.42M304.00,695.48L301.92,695.48M301.92,695.42L301.92,695.48M301.87,695.42L301.92,695.42M301.92,695.48L301.88,695.47M301.88,695.47L301.87,695.42" fill="none" stroke="#2e3e38" stroke-width=".85"/><text x="48" y="713" font-size="11" fill="#6b736c">MODEL-DERIVED · no hidden-line removal</text><rect x="604" y="433" width="540" height="292" fill="none" stroke="#d6dbd0"/><text x="618" y="458" font-size="15">AXONOMETRIC</text><path d="M687.96,683.33L688.08,683.30M688.08,683.30L688.05,683.17M688.08,683.30L877.47,573.95M688.08,689.35L688.08,683.30M688.08,695.40L688.08,689.35M688.08,695.40L877.47,586.06M877.47,573.95L1066.86,464.61M877.47,586.06L1066.86,476.72M1066.86,470.66L1066.86,464.61M1066.86,476.72L1066.86,470.66M1066.86,476.72L1066.92,476.64M1066.83,476.80L1066.86,476.72M681.08,691.47L681.14,691.39M681.14,691.39L681.17,691.52M681.14,691.39L870.53,582.05M681.14,685.34L681.14,691.39M681.14,679.28L681.14,685.34M681.14,679.28L870.53,569.94M870.53,582.05L1059.92,472.70M870.53,569.94L1059.92,460.60M1059.92,466.65L1059.92,472.70M1059.92,460.60L1059.92,466.65M1059.92,460.60L1060.04,460.57M1059.95,460.51L1059.92,460.60M681.12,691.55L681.08,691.47M681.17,691.62L681.14,691.54M687.96,695.43L687.96,695.50M681.08,691.47L681.08,685.41M681.14,691.54L681.08,691.47M681.14,691.54L681.14,685.48M684.48,693.47L681.14,691.54M687.83,695.40L684.48,693.47M687.83,695.40L687.83,689.35M687.96,689.38L687.96,695.43M681.08,685.41L681.08,679.36M681.14,685.48L681.14,679.43M687.83,689.35L687.83,683.30M687.96,683.33L687.96,689.38M681.08,679.36L681.12,679.27M684.48,681.36L681.14,679.43M687.83,683.30L684.48,681.36M687.83,683.30L687.87,683.17M687.96,683.33L687.83,683.30M687.96,683.22L687.96,683.33M1060.04,460.50L1060.04,460.57M1060.13,460.51L1060.17,460.60M1066.92,464.53L1066.88,464.45M1060.04,460.57L1060.04,466.62M1060.17,460.60L1060.04,460.57M1060.17,460.60L1060.17,466.65M1063.52,462.53L1060.17,460.60M1066.86,464.46L1063.52,462.53M1066.86,464.46L1066.86,470.52M1066.92,470.59L1066.92,464.53M1060.04,466.62L1060.04,472.67M1060.17,466.65L1060.17,472.70M1066.86,470.52L1066.86,476.57M1066.92,476.64L1066.92,470.59M1060.04,472.67L1060.04,472.78M1063.52,474.64L1060.17,472.70M1066.86,476.57L1063.52,474.64M1066.86,476.57L1066.83,476.69M1066.92,476.64L1066.86,476.57M1066.88,476.73L1066.92,476.64M681.12,679.27L681.17,679.20M681.17,679.31L681.12,679.27M681.17,679.31L681.26,679.21M684.52,681.24L681.17,679.31M687.87,683.17L684.52,681.24M687.96,683.22L687.87,683.17M688.05,683.17L687.96,683.22M681.17,679.20L870.56,569.86M681.26,679.21L681.17,679.20M681.26,679.21L870.65,569.87M684.61,681.14L681.26,679.21M687.96,683.08L684.61,681.14M687.96,683.08L877.35,573.73M877.44,573.83L688.05,683.17M870.56,569.86L1059.95,460.51M870.65,569.87L1060.04,460.52M877.35,573.73L1066.74,464.39M1066.83,464.48L877.44,573.83M1059.95,460.51L1060.04,460.50M1060.04,460.50L1060.13,460.51M1063.39,462.46L1060.04,460.52M1060.13,460.51L1063.48,462.45M1066.74,464.39L1063.39,462.46M1063.48,462.45L1066.83,464.38M1066.74,464.39L1066.83,464.38M1066.83,464.48L1066.74,464.39M1066.83,464.38L1066.88,464.45M1066.88,464.45L1066.83,464.48M687.96,695.50L688.05,695.49M687.87,695.49L687.96,695.50M687.87,695.49L687.96,695.48M684.52,693.55L687.87,695.49M681.17,691.62L684.52,693.55M681.12,691.55L681.17,691.62M681.17,691.52L681.12,691.55M688.05,695.49L877.44,586.14M687.96,695.48L688.05,695.49M687.96,695.48L877.35,586.13M684.61,693.54L687.96,695.48M681.26,691.61L684.61,693.54M681.26,691.61L870.65,582.27M870.56,582.17L681.17,691.52M877.44,586.14L1066.83,476.80M877.35,586.13L1066.74,476.79M870.65,582.27L1060.04,472.92M1059.95,472.83L870.56,582.17M1066.83,476.80L1066.88,476.73M1066.88,476.73L1066.83,476.69M1063.39,474.86L1066.74,476.79M1066.83,476.69L1063.48,474.76M1060.04,472.92L1063.39,474.86M1063.48,474.76L1060.13,472.83M1060.04,472.92L1060.13,472.83M1059.95,472.83L1060.04,472.92M1060.13,472.83L1060.04,472.78M1060.04,472.78L1059.95,472.83" fill="none" stroke="#2e3e38" stroke-width=".85"/><text x="618" y="713" font-size="11" fill="#6b736c">MODEL-DERIVED · no hidden-line removal</text><text x="34" y="790" font-size="16">Factory | warm-white-powdercoat</text><text x="34" y="823" font-size="13">現有模型導出的形體頁；獨立參考、接口、回裝與品質尚須逐項驗收。</text><text x="34" y="854" font-size="12">GT01 PARTS WAREHOUSE · PROVISIONAL · F-B06</text></g></svg>